<?xml version="1.0" standalone="no"?>
<!DOCTYPE svg PUBLIC "-//W3C//DTD SVG 1.1//EN" "http://www.w3.org/Graphics/SVG/1.1/DTD/svg11.dtd">
<svg xmlns="http://www.w3.org/2000/svg">
<defs >
<font id="CutiveMono" horiz-adv-x="1240" ><font-face
    font-family="Cutive Mono"
    units-per-em="2048"
    panose-1="2 0 5 9 0 0 0 0 0 0"
    ascent="1697"
    descent="-558"
    alphabetic="0" />
<glyph unicode=" " glyph-name="null" />
<glyph unicode="!" glyph-name="null" d="M686 1103Q686 989 666 747T646 380Q646 344 622 344T598 380Q598 506 577 747T556 1103Q556 1150 573 1168T622 1187Q686 1187 686 1103ZM664 -9T621 -9T549 20T519 93T548 164T621 193T693 165T722 93T693 21Z" />
<glyph unicode="&quot;" glyph-name="null" d="M752 721Q751 701 728 701Q704 701 703 721L671 1117Q669 1143 686 1157T728 1172Q751 1172 768 1159T786 1122V1116L752 721ZM535 721Q534 701 511 701Q487 701 486 721L454 1117Q452 1143 469 1157T511 1172Q534
1172 551 1159T569 1122V1116L535 721Z" />
<glyph unicode="#" glyph-name="null" d="M584 -94Q584 -89 585 -86L704 385H447L325 -94Q318 -123 284 -123Q269 -123 258 -115T247 -94Q247 -89 248 -86L367 385H250Q236 385 228 397T219 428Q219 445 227 457T250 470H388L443 689H292Q278 689 270 701T261
732Q261 749 269 761T292 774H465L593 1282Q600 1308 631 1308Q647 1308 659 1300T672 1277Q672 1272 671 1270L545 774H802L930 1282Q937 1308 968 1308Q984 1308 996 1300T1009 1277Q1009 1272 1008 1270L882 774H1001Q1016 774 1024 761T1032 731T1024 702T1002
689H861L805 470H959Q974 470 982 458T990 428Q990 410 982 398T959 385H784L662 -94Q655 -123 621 -123Q606 -123 595 -115T584 -94ZM468 470H725L780 689H524L468 470Z" />
<glyph unicode="$" glyph-name="null" d="M640 1315Q640 1328 650 1336T674 1344Q687 1344 697 1336T707 1315V1183Q850 1168 917 1095Q917 1187 969 1187Q990 1187 999 1171T1009 1117V864Q1009 838 996 825T963 811Q945 811 932 823T918 858V949Q912 998 869
1034T769 1086Q739 1094 707 1098V636Q729 628 751 621Q829 594 881 568T976 504T1037 419T1057 308Q1057 222 1027 158T945 56T828 1Q772 -15 707 -17V-141Q707 -153 697 -160T674 -167Q660 -167 650 -160T640 -141V-14Q577 -7 510 16Q416 49 363 105Q363 -17
316 -17Q290 -17 279 -1T268 57V371Q268 394 280 406T312 418T344 405T358 369V250Q358 185 464 127Q547 81 640 72V561L567 586Q512 605 476 620T400 660T336 713T298 784T282 881Q282 1025 380 1106T627 1187Q634 1187 640 1187V1315ZM640 1101Q519 1100 450
1044Q378 986 378 886Q378 857 383 834T395 793T421 760T453 734T498 711T550 691T615 668Q627 664 640 659V1101ZM707 69Q816 72 886 126Q961 183 961 304Q961 351 947 386T900 447T830 491T731 530Q719 534 707 538V69Z" />
<glyph unicode="%" glyph-name="null" d="M277 472Q215 472 174 526T133 657Q133 792 198 889T361 986H403Q482 986 529 987T638 997T738 1022T813 1068T869 1143Q878 1162 898 1162Q912 1162 923 1152T935 1124Q935 1113 931 1104L370 -215Q358 -243 331 -243Q316
-243 306 -234T296 -207Q296 -194 301 -183L800 985Q704 915 535 915Q478 915 415 926Q451 904 469 860T489 767Q489 658 428 565T277 472ZM282 531Q321 531 353 571T401 667T417 777Q417 829 398 871T346 913Q284 913 245 841T205 661Q205 605 225 568T282 531ZM878
-13Q810 -13 775 43T739 184Q739 259 764 330T843 451T964 501Q1027 501 1063 444T1099 308Q1097 173 1038 80T878 -13ZM887 44Q926 44 959 84T1009 182T1026 301Q1026 359 1009 397T957 435Q896 435 855 353T813 181Q813 122 831 83T887 44Z" />
<glyph unicode="&amp;" glyph-name="null" d="M847 135Q781 62 700 23T506 -16Q359 -16 273 59T186 272Q186 292 187 303Q190 346 212 392T256 470T319 542T373 594T419 632Q378 686 353 723T302 823T275 936Q275 1049 339 1119T511 1189Q625 1189 692 1118T760
933Q760 908 756 885T742 838T723 798T695 759T667 726T633 693T600 665T565 637T534 612Q594 525 689 416T849 254Q893 297 933 387T978 544H846Q830 544 821 557T812 587Q812 603 820 614T844 626H1118Q1134 626 1143 614T1153 585Q1153 568 1144 556T1116 544H1057Q1055
499 1041 451T1000 355T954 277T905 203Q1032 93 1092 51Q1116 35 1116 12Q1116 -5 1102 -18T1070 -32Q1061 -32 1051 -27Q1029 -15 997 10T916 77T847 135ZM283 311Q282 301 282 282Q282 171 348 118T517 65Q600 65 675 100T797 192Q728 248 626 368T469 564Q410
518 349 445T283 311ZM673 931Q673 1021 628 1064T521 1107Q462 1107 417 1067T371 944Q371 833 487 678Q673 812 673 931Z" />
<glyph unicode="&apos;" glyph-name="null" d="M644 721Q643 701 620 701Q596 701 595 721L563 1117Q561 1143 578 1157T620 1172Q643 1172 660 1159T678 1122V1116L644 721Z" />
<glyph unicode="(" glyph-name="null" d="M484 146T484 570T692 1267Q705 1284 723 1284T755 1269T770 1238Q770 1230 764 1222Q672 1114 625 942T578 570T625 199T764 -82Q770 -89 770 -98Q770 -114 756 -129T723 -144T692 -127Q484 146 484 570Z" />
<glyph unicode=")" glyph-name="null" d="M770 994T770 570T562 -127Q549 -144 531 -144T499 -129T484 -98Q484 -90 490 -82Q582 26 629 198T676 570T629 941T490 1222Q484 1230 484 1238Q484 1254 498 1269T531 1284T562 1267Q770 994 770 570Z" />
<glyph unicode="*" glyph-name="null" d="M975 856Q998 856 1011 837T1024 791T1011 746T975 727L777 750Q758 751 747 762T736 791Q736 829 777 834L975 856ZM342 727Q319 727 306 746T292 791Q292 817 305 836T342 856L540 834Q581 829 581 791Q581 774 570
763T540 750L342 727ZM879 536Q879 509 853 490T798 470Q767 470 758 492L680 672Q675 687 675 692Q675 709 687 720T718 731Q740 731 755 712L873 556Q879 544 879 536ZM642 891Q642 874 629 863T598 851Q578 851 563 872L444 1027Q438 1039 438 1048Q438 1075
463 1094T519 1113Q547 1113 559 1092L637 912Q642 900 642 891ZM518 470Q488 470 463 489T437 536Q437 544 443 556L562 712Q575 731 597 731Q615 731 628 720T641 692Q641 684 637 672L559 492Q546 470 518 470ZM766 1113T796 1113T851 1094T877 1048Q877 1037
872 1027L753 872Q738 851 717 851Q699 851 687 862T674 891Q674 898 678 912L756 1092Q766 1113 796 1113Z" />
<glyph unicode="+" glyph-name="null" d="M924 538Q967 538 967 497T924 456H669V195Q669 170 655 157T621 143T587 156T573 195V456H316Q273 456 273 497Q273 514 283 526T316 538H573V804Q573 829 587 842T621 856T655 843T669 804V538H924Z" />
<glyph unicode="," glyph-name="null" d="M616 180Q664 180 696 148T728 59Q728 -22 670 -97T543 -208Q540 -210 533 -210Q522 -210 514 -202T505 -183Q505 -171 517 -162Q626 -83 626 -8Q579 -8 549 15T518 85Q518 130 547 155T616 180Z" />
<glyph unicode="-" glyph-name="null" d="M379 500H886Q937 500 937 459Q937 440 927 429T886 418H379Q327 418 327 459T379 500Z" />
<glyph unicode="." glyph-name="null" d="M620 -16Q574 -16 544 13T514 89T544 165T620 195T695 165T726 89T696 14T620 -16Z" />
<glyph unicode="/" glyph-name="null" d="M247 -178L914 1152Q924 1173 951 1173Q969 1173 983 1162T997 1134Q997 1125 991 1113L327 -213Q314 -237 290 -237Q272 -237 258 -225T243 -195Q243 -186 247 -178Z" />
<glyph unicode="0" glyph-name="null" d="M619 69Q713 69 781 145T880 335T912 583T880 832T780 1024T619 1101Q548 1101 492 1057T400 939T347 774T328 583Q328 449 359 335T458 145T619 69ZM619 1187Q712 1187 787 1136T910 998T982 806T1008 584Q1008 470 983
364T910 172T787 35T619 -16Q544 -16 481 17T372 108T295 243T248 406T232 584Q232 699 257 805T330 998T452 1135T619 1187Z" />
<glyph unicode="1" glyph-name="null" d="M735 1130V82H1075Q1093 82 1103 70T1114 41Q1114 24 1104 12T1074 0H274Q252 0 240 12T228 42Q228 58 239 70T270 82H639V1069L304 917Q296 913 287 913Q270 913 258 927T246 958Q246 983 270 993L674 1173Q682 1177
694 1177Q711 1177 723 1166T735 1130Z" />
<glyph unicode="2" glyph-name="null" d="M612 1187Q765 1187 855 1119T945 914Q945 830 896 742T771 573T616 416T466 251T367 82H863L875 264Q876 284 892 296T927 309T958 296T971 258V50Q971 27 956 14T917 0H279Q272 28 272 37Q272 98 304 166T386 296T499
422T622 548T734 670T817 791T849 907Q849 1014 786 1057T597 1101Q483 1101 390 1055Q374 925 367 901Q354 858 324 858Q295 858 280 880T264 938Q264 1187 612 1187Z" />
<glyph unicode="3" glyph-name="null" d="M503 601Q465 601 465 638Q465 661 496 679Q519 693 561 718T624 756T676 790T723 828T756 865T780 910T787 959Q787 1019 743 1060T613 1102Q551 1102 511 1092T452 1068T422 1039T393 1014T348 1004Q329 1004 318 1014T307
1037Q307 1082 363 1118T489 1170T615 1187Q731 1187 807 1126T883 959Q883 926 872 895T846 839T804 791T758 751T707 719T663 694T625 675Q779 675 864 589T950 360Q950 196 833 90T544 -17Q441 -17 352 22T263 108Q263 118 274 129T301 141Q329 141 352 130T393
105T450 81T547 69Q687 69 770 152T854 366Q854 479 786 544T602 609Q585 609 546 605T503 601Z" />
<glyph unicode="4" glyph-name="null" d="M707 1019L322 449H707V1019ZM420 0Q409 0 402 10T395 34Q395 65 419 65H707V371H245Q231 371 219 384T207 415Q207 430 217 443L728 1167Q737 1179 764 1179Q803 1179 803 1125V449H1005Q1022 449 1031 438T1040 410Q1040
394 1031 383T1003 371H803V65H961Q985 65 985 34Q985 20 978 10T960 0H420Z" />
<glyph unicode="5" glyph-name="null" d="M579 -17Q443 -17 340 54Q313 73 313 98Q313 114 325 126T353 138Q366 138 377 130Q466 65 592 65Q649 65 705 85T808 143T885 243T915 381Q915 520 847 588T679 657Q602 657 532 618T430 517Q423 495 395 495Q380 495
369 504T358 529L378 1111Q378 1132 388 1145T422 1163T464 1169T514 1171H838Q852 1225 861 1242T889 1260Q934 1260 934 1227Q934 1167 914 1128T857 1089H487Q479 1089 479 1081L444 642Q556 735 687 735Q821 735 916 640T1011 396Q1011 273 953 178T797 33T579
-17Z" />
<glyph unicode="6" glyph-name="null" d="M1027 357Q1027 187 923 85T648 -17Q454 -17 356 101T257 426Q257 563 289 685T381 907T506 1085T659 1241Q672 1253 687 1253Q705 1253 719 1239T733 1207Q733 1194 721 1183Q588 1072 487 919T361 591Q416 665 499 703T668
741Q834 741 930 635T1027 357ZM648 65Q780 65 855 148T931 354Q931 415 916 468T871 564T789 633T671 659Q527 659 440 573T353 364Q353 303 370 251T421 156T513 90T648 65Z" />
<glyph unicode="7" glyph-name="null" d="M569 47Q569 201 592 345T661 622T752 857T864 1085H370V916Q370 891 356 877T321 863Q302 863 288 876T274 916V1117Q274 1142 289 1156T330 1171H928Q946 1171 958 1153T971 1111Q971 1094 964 1081Q890 939 845 840T754
609T687 339T665 46Q665 21 652 7T619 -7Q599 -7 584 7T569 47Z" />
<glyph unicode="8" glyph-name="null" d="M620 1187Q780 1187 875 1119T970 913Q970 870 955 830T921 761T865 700T806 650T741 604Q732 598 728 595Q856 523 904 484Q1022 388 1022 268Q1022 120 918 52T642 -17Q582 -17 529 -8T425 22T339 75T282 159T260 274Q260
307 271 339T296 397T339 450T386 494T441 535T493 569T544 599Q538 603 526 610Q483 636 460 651T399 697T341 753T306 818T290 897Q290 1033 383 1110T620 1187ZM648 69Q926 69 926 266Q926 298 916 327T886 382T845 426T791 467T736 501T677 532T626 560Q584
536 561 522T492 477T422 419T377 355T356 282Q356 232 373 194T419 132T486 95T565 75T648 69ZM628 1101Q525 1101 454 1053T382 906Q382 869 394 838T425 782T476 735T540 692T616 649Q633 640 642 635Q698 667 735 692T807 751T860 823T878 905Q878 1101 628
1101Z" />
<glyph unicode="9" glyph-name="null" d="M250 813Q250 983 354 1085T629 1187Q823 1187 921 1069T1020 744Q1020 634 997 533T939 355T848 200T739 68T616 -52Q602 -64 588 -64Q570 -64 556 -50T542 -18Q542 -4 554 6Q872 271 916 579Q861 505 778 467T609 429Q443
429 347 535T250 813ZM629 1105Q497 1105 422 1022T346 816Q346 755 361 702T406 606T488 537T606 511Q750 511 837 597T924 806Q924 867 907 919T856 1014T764 1080T629 1105Z" />
<glyph unicode=":" glyph-name="null" d="M644 -16Q598 -16 569 13T539 89T569 165T644 195T719 165T750 89T720 14T644 -16ZM644 600Q598 600 569 629T539 705T569 781T644 811T719 781T750 705T720 630T644 600Z" />
<glyph unicode=";" glyph-name="null" d="M644 180Q692 180 724 148T756 59Q756 -95 606 -172Q595 -178 581 -178Q564 -178 552 -167T540 -142Q540 -124 557 -112Q588 -92 603 -80T636 -42T654 13Q608 13 580 34T551 96Q551 136 578 158T644 180ZM644 600Q598
600 569 629T539 705T569 781T644 811T719 781T750 705T720 630T644 600Z" />
<glyph unicode="&lt;" glyph-name="null" d="M87 497Q61 508 61 550Q61 594 87 605L955 966Q961 968 965 968Q982 968 995 951T1009 914Q1009 890 988 882L179 554L998 221Q1025 210 1025 183Q1025 164 1012 148T981 132Q975 132 967 135L87 497Z" />
<glyph unicode="=" glyph-name="null" d="M900 689Q921 689 933 676T945 644Q945 625 933 612T900 598H341Q320 598 308 611T296 644Q296 662 308 675T341 689H900ZM900 347Q921 347 933 334T945 302Q945 283 933 270T900 256H341Q320 256 308 269T296 302Q296
320 308 333T341 347H900Z" />
<glyph unicode="&gt;" glyph-name="null" d="M1130 603Q1156 592 1156 550Q1156 506 1130 495L262 134Q256 132 252 132Q235 132 222 149T208 186Q208 210 229 218L1038 546L219 879Q192 890 192 917Q192 936 205 952T236 968Q242 968 250 965L1130 603Z" />
<glyph unicode="?" glyph-name="null" d="M905 906Q905 845 881 790T820 696T740 619T661 548T600 476T575 394Q575 365 569 352T543 338Q527 338 520 346T511 364T509 393Q509 454 534 506T596 596T672 673T743 762T784 874Q787 894 787 912Q787 1001 729 1056T570
1111Q485 1111 421 1082Q420 1074 419 1055T417 1025T415 997T411 969T405 944T396 922T385 906T369 895T349 891Q300 891 300 971Q300 1071 375 1129T573 1188Q721 1188 813 1115T905 906ZM592 -9T549 -9T477 20T447 93T476 165T549 194T621 166T650 94T621 21Z"
/>
<glyph unicode="@" glyph-name="null" d="M795 550Q795 631 767 665T652 700Q574 700 537 632T500 460Q500 376 534 320T631 263H632Q679 263 711 283T762 342T787 432T795 550ZM189 436Q189 344 218 261T303 111T448 6T648 -33Q792 -33 938 40Q948 45 961 45Q977
45 987 34T997 7Q997 -14 978 -26Q896 -77 820 -96T651 -116H649Q513 -116 403 -70T225 55T120 231T83 439Q83 560 126 677T246 889T440 1041T695 1099Q920 1099 1062 961T1205 585Q1205 502 1190 434T1143 311T1055 225T923 194Q873 194 844 220T799 304Q765 247
719 218T622 189Q537 189 476 264T414 466Q414 610 477 693T647 776Q686 776 722 765T780 741T826 705T857 672T880 642L851 342Q850 337 850 327Q856 269 926 269Q1107 269 1107 618Q1107 798 991 905T699 1012Q585 1012 487 961T325 828T225 644T189 436Z" />
<glyph unicode="A" glyph-name="null" d="M425 475H845L646 1072L425 475ZM90 0Q66 0 53 12T40 43Q40 60 53 73T89 86H174L559 1085H342Q318 1085 305 1097T292 1128Q292 1145 305 1158T341 1171H644Q702 1171 725 1106L1087 86H1166Q1189 86 1201 74T1214 44Q1214
26 1201 13T1164 0H798Q774 0 761 13T747 44Q747 61 760 73T796 86H982L875 392H392L280 86H439Q462 86 475 73T489 43Q489 25 476 13T438 0H90Z" />
<glyph unicode="B" glyph-name="null" d="M1104 348Q1104 257 1066 189T958 81T799 20T602 0H244Q220 0 207 12T193 43Q193 60 206 73T243 86H403V1085H237Q214 1085 201 1098T188 1129Q188 1146 200 1158T236 1171H592Q1007 1171 1007 889Q1007 801 961 741T843
660Q959 643 1031 566T1104 348ZM1008 363Q1008 415 995 454T953 518T893 559T815 583T727 594T629 597H499V86H605Q697 86 768 100T894 145T979 231T1008 363ZM921 885Q921 993 839 1039T605 1085H499V673H629Q751 673 836 726T921 885Z" />
<glyph unicode="C" glyph-name="null" d="M1145 336Q1130 270 1095 210T1003 97T860 14T669 -17Q434 -17 283 154T132 607Q132 865 283 1026T668 1187Q785 1187 883 1139T1022 1015V1121Q1022 1144 1036 1157T1071 1171T1105 1158T1120 1120V827Q1120 804 1107
792T1074 780Q1034 780 1026 827Q1003 950 905 1025T671 1101Q468 1101 348 961T228 600Q228 477 264 376T361 208T501 105T670 69Q812 69 910 146T1049 359Q1059 387 1089 387Q1110 387 1128 374T1146 343Q1146 338 1145 336Z" />
<glyph unicode="D" glyph-name="null" d="M988 591Q988 829 871 957T534 1085H410V86H520Q764 86 876 210T988 591ZM1084 591Q1084 283 939 142T513 0H152Q128 0 115 12T101 43Q101 60 114 73T151 86H314V1085H155Q132 1085 120 1097T107 1127Q107 1145 120 1158T157
1171H515Q782 1171 933 1027T1084 591Z" />
<glyph unicode="E" glyph-name="null" d="M837 437Q837 412 826 399T799 386Q784 386 772 397T759 429L746 577H420V85H1035L1051 336Q1052 353 1065 364T1095 375T1124 362T1137 323V53Q1137 28 1122 14T1081 0H155Q131 0 118 13T104 43T117 72T154 85H324V1085H189Q166
1085 154 1097T141 1127Q141 1145 154 1158T191 1171H1069Q1094 1171 1109 1157T1125 1117V847Q1125 826 1113 815T1085 803T1057 813T1043 841L1029 1085H420V654H746L759 787Q761 808 772 820T799 832Q815 832 826 819T837 779V437Z" />
<glyph unicode="F" glyph-name="null" d="M848 437Q848 412 837 399T810 386Q795 386 783 397T770 429L757 577H420V85H770Q792 85 804 73T816 43Q816 25 804 13T771 0H155Q131 0 118 13T104 43T117 72T154 85H324V1085H189Q166 1085 154 1097T141 1127Q141 1145
154 1158T191 1171H1082Q1107 1171 1122 1157T1138 1117V847Q1138 826 1126 815T1098 803T1070 813T1056 841L1042 1085H420V654H757L770 787Q772 808 783 820T810 832Q826 832 837 819T848 779V437Z" />
<glyph unicode="G" glyph-name="null" d="M1083 510V49Q1083 22 1069 7T1036 -8Q1016 -8 1002 7T987 51V175Q949 90 844 37T606 -17Q373 -17 231 152T89 607Q89 867 231 1027T605 1187Q722 1187 820 1139T959 1015V1121Q959 1144 973 1157T1008 1171T1042 1158T1057
1120V827Q1057 804 1044 792T1011 780Q971 780 963 827Q940 950 842 1025T608 1101Q407 1101 296 963T185 600Q185 354 305 212T607 69Q756 69 852 141T987 332V510H863Q840 510 827 523T813 554Q813 571 826 583T862 596H1146Q1169 596 1182 584T1195 554Q1195
536 1182 523T1144 510H1083Z" />
<glyph unicode="H" glyph-name="null" d="M143 0Q120 0 107 13T93 44Q93 61 105 73T141 86H265V1085H157Q133 1085 120 1097T107 1128Q107 1145 120 1158T157 1171H459Q482 1171 495 1158T509 1127Q509 1110 497 1098T461 1085H361V638H901V1085H801Q778 1085
766 1097T753 1127Q753 1145 766 1158T803 1171H1097Q1120 1171 1133 1159T1147 1130Q1147 1112 1134 1099T1097 1085H997V86H1097Q1121 86 1134 74T1147 43Q1147 26 1134 13T1097 0H803Q780 0 767 13T753 44Q753 61 765 73T801 86H901V558H361V86H461Q484 86 496
74T509 46Q509 27 496 14T459 0H143Z" />
<glyph unicode="I" glyph-name="null" d="M310 0Q286 0 273 12T259 43Q259 60 272 73T309 86H614V1085H309Q286 1085 273 1097T259 1127Q259 1145 272 1158T310 1171H995Q1018 1171 1031 1158T1045 1127Q1045 1110 1032 1098T996 1085H710V86H996Q1019 86 1032
73T1045 43Q1045 25 1032 13T995 0H310Z" />
<glyph unicode="J" glyph-name="null" d="M855 317Q855 249 832 194T769 100T677 36T568 -1T451 -13Q323 -13 231 37T138 171V283Q138 304 153 316T187 328T220 316T234 283V182Q234 132 301 100T460 68Q516 68 567 81T662 123T732 200T759 314V1085H409Q386 1085
374 1097T361 1127Q361 1145 374 1158T410 1171H1025Q1049 1171 1062 1159T1075 1128Q1075 1111 1062 1098T1026 1085H855V317Z" />
<glyph unicode="K" glyph-name="null" d="M84 0Q60 0 47 12T33 43Q33 60 46 73T83 86H242V1084H83Q59 1084 46 1096T33 1127T46 1158T84 1171H529Q552 1171 565 1158T579 1126Q579 1109 567 1097T531 1084H338V558L914 1078Q921 1085 921 1088Q921 1094 902 1094H813Q790
1094 777 1105T764 1131Q764 1147 777 1159T814 1171H1176Q1199 1171 1212 1158T1225 1127T1213 1097T1177 1084H1039L601 676L1122 86H1259Q1282 86 1294 73T1307 43Q1307 25 1294 13T1258 0H840Q816 0 803 12T790 43Q790 60 803 73T839 86H1005L527 621L342 465V86H586Q609
86 622 73T635 43Q635 25 622 13T585 0H84Z" />
<glyph unicode="L" glyph-name="null" d="M640 1171Q664 1171 677 1158T691 1127Q691 1110 678 1098T641 1085H489V86H946Q959 87 966 89T979 100T987 123L1021 399Q1024 420 1038 431T1071 442Q1092 442 1107 429T1122 393V387L1092 66Q1088 37 1070 19T1020
0H125Q101 0 88 12T74 43Q74 60 87 73T124 86H393V1085H166Q143 1085 130 1097T117 1127Q117 1145 130 1158T167 1171H640Z" />
<glyph unicode="M" glyph-name="null" d="M817 0Q793 0 780 13T766 44Q766 61 779 73T815 86H948V982L691 390Q670 342 625 342Q584 342 565 385L298 978V86H418Q442 86 455 74T468 44Q468 26 455 13T417 0H70Q46 0 33 12T20 43Q20 60 33 73T69 86H202V1085H83Q60
1085 47 1097T34 1127Q34 1145 47 1158T84 1171H282Q312 1171 328 1136L629 473L919 1141Q931 1171 964 1171H1156Q1180 1171 1193 1158T1207 1127Q1207 1110 1194 1098T1157 1085H1044V86H1172Q1195 86 1207 74T1220 44Q1220 26 1207 13T1170 0H817Z" />
<glyph unicode="N" glyph-name="null" d="M129 1085Q106 1085 93 1097T80 1127Q80 1145 93 1158T130 1171H417Q445 1171 457 1147L943 194V1085H794Q771 1085 758 1097T745 1127Q745 1145 758 1158T796 1171H1133Q1156 1171 1169 1158T1183 1127Q1183 1110 1171
1098T1135 1085H1039V47Q1039 16 1025 0T990 -16Q954 -16 934 22L381 1084V86H519Q542 86 555 73T568 43Q568 25 555 13T518 0H160Q136 0 123 12T110 43Q110 60 123 73T159 86H285V1085H129Z" />
<glyph unicode="O" glyph-name="null" d="M700 1101T620 1101T471 1072T354 993T272 877T221 736T204 582Q204 484 230 394T306 230T437 113T620 69T802 113T933 230T1009 393T1036 582Q1036 661 1020 736T969 877T886 993T769 1072ZM743 -17T620 -17T397 34T236
170T141 361T108 582T141 804T235 997T397 1135T620 1187T843 1135T1004 997T1099 804T1132 582T1099 361T1005 170T843 34Z" />
<glyph unicode="P" glyph-name="null" d="M972 843Q972 901 956 944T904 1013T835 1054T744 1076T651 1083T552 1085H442V607H594Q644 607 676 608T753 614T825 628T883 655T931 697T960 759T972 843ZM1068 847Q1068 797 1059 756T1034 683T992 628T940 587T876
560T805 542T726 532T644 528T558 527H442V86H771Q794 86 807 73T820 43Q820 25 807 13T770 0H174Q150 0 137 12T123 43Q123 60 136 73T173 86H346V1085H187Q164 1085 151 1097T138 1127Q138 1145 151 1158T188 1171H532Q600 1171 647 1170T755 1161T857 1140T941
1103T1009 1046T1051 962T1068 847Z" />
<glyph unicode="Q" glyph-name="null" d="M700 1101T620 1101T471 1072T354 993T272 877T221 736T204 582Q204 484 230 394T306 230T437 113T620 69T802 113T933 230T1009 393T1036 582Q1036 661 1020 736T969 877T886 993T769 1072ZM636 -17L617 3L504 -2L505
-3Q506 -4 506 -5Q378 23 286 113T151 324T108 582Q108 697 141 804T235 997T397 1135T620 1187T843 1135T1004 997T1099 804T1132 582Q1132 492 1113 407T1053 246T954 113T814 21T636 -17ZM636 -17L722 -108Q771 -162 836 -162Q908 -162 1008 -95Q1021 -86 1037
-86T1065 -99T1077 -130Q1077 -155 1054 -169Q1018 -203 956 -224T854 -246Q798 -246 758 -235T678 -193T608 -127T521 -24Q511 -11 506 -5Q558 -17 620 -17H636Z" />
<glyph unicode="R" glyph-name="null" d="M429 619H536Q618 619 675 623T788 642T877 680T931 746T951 846Q951 907 936 949T894 1018T816 1059T706 1079T556 1085H429V619ZM658 41Q658 25 645 13T608 0H209Q185 0 172 12T158 41Q158 58 171 70T208 82H333V1085H236Q213
1085 200 1097T186 1127Q186 1145 199 1158T237 1171H557Q635 1171 694 1166T812 1149T911 1114T984 1056T1031 971T1047 853Q1047 746 989 679T841 578L1045 82H1129Q1193 82 1193 42Q1193 24 1178 12T1130 0H895Q871 0 858 12T844 42Q844 58 857 70T893 82H944L764
556Q753 552 696 547T604 542H429V82H609Q632 82 645 70T658 41Z" />
<glyph unicode="S" glyph-name="null" d="M650 1101Q522 1101 450 1044T378 886Q378 857 383 834T395 793T421 760T453 734T498 711T550 691T615 668L751 621Q829 594 881 568T976 504T1037 419T1057 308Q1057 222 1027 158T945 56T828 1T689 -17Q604 -17 510
16T363 105Q363 -17 316 -17Q290 -17 279 -1T268 57V371Q268 394 280 406T312 418T344 405T358 369V250Q358 185 463 127T692 69Q811 69 886 126T961 304Q961 351 947 386T900 447T830 491T731 530L567 586Q512 605 476 620T400 660T336 713T298 784T282 881Q282
1025 380 1106T627 1187Q833 1187 917 1095Q917 1187 969 1187Q990 1187 999 1171T1009 1117V864Q1009 838 996 825T963 811Q945 811 932 823T918 858V949Q912 998 869 1034T769 1085T650 1101Z" />
<glyph unicode="T" glyph-name="null" d="M210 814Q209 792 197 781T169 769Q150 769 135 783T120 823V1117Q120 1171 162 1171H1078Q1118 1171 1118 1117V823Q1118 798 1105 785T1072 771Q1055 771 1042 782T1028 814L1018 1085H666V86H908Q931 86 944 74T957
44Q957 26 944 13T906 0H330Q306 0 292 13T278 44Q278 61 291 73T328 86H570V1085H222L210 814Z" />
<glyph unicode="U" glyph-name="null" d="M654 -17Q472 -17 361 98T249 413V1085H104Q81 1085 68 1097T55 1127Q55 1145 68 1158T105 1171H506Q529 1171 542 1158T556 1127Q556 1110 543 1098T507 1085H345V413Q345 249 425 159T654 69Q792 69 876 164T960 411V1085H839Q816
1085 803 1097T789 1127Q789 1145 802 1158T840 1171H1173Q1206 1171 1224 1158T1243 1127Q1243 1110 1225 1098T1174 1085H1056V411Q1056 220 945 102T654 -17Z" />
<glyph unicode="V" glyph-name="null" d="M1131 1171Q1155 1171 1168 1159T1181 1128Q1181 1111 1168 1098T1132 1085H1046L730 20Q716 -11 704 -23T666 -36Q621 -36 602 20L260 1085H156Q133 1085 121 1097T108 1127Q108 1145 121 1158T158 1171H498Q522 1171
535 1159T548 1128Q548 1111 535 1098T499 1085H368L671 119L946 1085H826Q803 1085 790 1098T776 1128Q776 1146 789 1158T827 1171H1131Z" />
<glyph unicode="W" glyph-name="null" d="M873 1085Q850 1085 837 1098T823 1129Q823 1146 836 1158T872 1171H1151Q1174 1171 1187 1159T1201 1129Q1201 1111 1188 1098T1150 1085H1080L916 27Q909 -17 864 -17Q847 -17 832 -3T811 35L641 701L454 27Q442 -17
403 -17Q384 -17 369 -3T351 35L185 1085H101Q78 1085 65 1098T51 1129Q51 1146 64 1158T100 1171H402Q425 1171 438 1159T451 1129Q451 1111 438 1098T400 1085H286L424 199L601 850Q610 886 646 886Q680 886 689 850L858 196L980 1085H873Z" />
<glyph unicode="X" glyph-name="null" d="M1094 1171Q1134 1171 1134 1127Q1134 1085 1095 1085H1022L686 589L1027 82H1100Q1139 82 1139 42Q1139 0 1098 0H766Q742 0 729 12T716 41Q716 57 729 69T765 82H921L632 510L342 82H491Q530 82 530 41T490 0H142Q102
0 102 41T141 82H226L574 596L245 1085H163Q124 1085 124 1127Q124 1171 164 1171H500Q540 1171 540 1127Q540 1085 501 1085H353L628 676L905 1085H804Q765 1085 765 1127Q765 1171 805 1171H1094Z" />
<glyph unicode="Y" glyph-name="null" d="M1065 1171Q1089 1171 1102 1160T1116 1132Q1116 1117 1103 1106T1067 1095H1012L689 548V86H921Q944 86 956 74T969 44Q969 26 956 13T919 0H334Q310 0 296 13T282 44Q282 61 295 73T332 86H593V553L258 1095H174Q151
1095 138 1106T124 1133T138 1159T175 1171H505Q529 1171 542 1160T556 1133T543 1107T506 1095H370L646 633L914 1095H803Q780 1095 767 1106T753 1133T766 1159T804 1171H1065Z" />
<glyph unicode="Z" glyph-name="null" d="M254 806V1116Q256 1171 322 1171H952Q975 1171 988 1155T1001 1116Q1001 1097 991 1081L369 86H942V384Q943 407 958 421T993 435Q1010 435 1022 423T1034 385L1044 53Q1045 28 1031 14T993 0H271Q219 0 219 31Q219 46
247 95L880 1085H366L350 797Q349 778 336 768T305 757Q285 757 270 770T254 806Z" />
<glyph unicode="[" glyph-name="null" d="M802 1331Q815 1331 822 1319T830 1289T823 1260T802 1247H611V-64H802Q815 -64 822 -76T830 -106T823 -135T802 -148H570Q544 -148 530 -133T515 -90V1270Q515 1331 570 1331H802Z" />
<glyph unicode="\" glyph-name="null" d="M991 -178Q995 -186 995 -195Q995 -212 981 -224T949 -237Q924 -237 911 -213L247 1113Q242 1123 242 1134Q242 1151 256 1162T288 1173Q314 1173 324 1152L991 -178Z" />
<glyph unicode="]" glyph-name="null" d="M452 -148Q439 -148 432 -136T424 -106T431 -77T452 -64H643V1247H452Q439 1247 432 1259T424 1289T431 1318T452 1331H684Q710 1331 724 1316T739 1273V-87Q739 -148 684 -148H452Z" />
<glyph unicode="^" glyph-name="null" d="M924 436Q924 418 910 405T876 391Q846 391 831 422L627 859L405 426Q388 391 356 391Q339 391 328 403T316 436Q316 458 326 477L566 964Q592 1018 625 1018Q657 1018 680 969L918 460Q924 444 924 436Z" />
<glyph unicode="_" glyph-name="null" d="M1000 91Q1021 91 1033 78T1045 46Q1045 27 1033 14T1000 0H241Q220 0 208 13T196 46Q196 64 208 77T241 91H1000Z" />
<glyph unicode="`" glyph-name="null" d="M410 1010Q410 997 400 986T377 975Q369 975 365 979Q307 1013 25 1189Q6 1202 6 1220Q6 1241 24 1259T64 1277Q81 1277 92 1267Q250 1131 400 1031Q410 1025 410 1010Z" />
<glyph unicode="a" glyph-name="null" d="M611 731Q490 731 390 686Q386 609 372 570T324 531Q295 531 280 551T264 603Q264 695 361 754T612 813Q699 813 758 789T850 714T896 600T910 444V132Q910 97 924 85T962 72Q988 72 1017 87T1063 121Q1074 133 1087 133Q1102
133 1113 120T1124 91Q1124 76 1114 66Q1044 -7 954 -7Q903 -7 868 17T821 113Q772 58 684 21T491 -16Q379 -16 316 45T253 210Q253 246 262 276T286 330T326 371T375 402T437 425T505 441T581 452T659 459T741 465Q790 468 814 470V490Q814 607 769 669T611 731ZM814
401Q581 378 516 364Q389 336 361 268Q350 243 350 210Q350 134 391 100T502 65Q591 65 675 98T814 189V401Z" />
<glyph unicode="b" glyph-name="null" d="M952 398Q952 539 877 635T664 731Q489 731 386 602V210Q487 65 672 65Q805 65 878 160T952 398ZM386 1141V707Q446 759 512 786T670 813Q842 813 945 697T1048 398Q1048 213 948 98T674 -17Q584 -17 509 16T382 102Q382
54 374 30T356 1T331 -4Q290 -4 290 74V1091L162 1083Q161 1083 154 1082T142 1080Q125 1080 114 1091T103 1118Q103 1152 136 1159L325 1178Q341 1180 345 1180Q386 1180 386 1141Z" />
<glyph unicode="c" glyph-name="null" d="M635 813Q793 813 886 753T979 564Q979 528 964 506T919 484T879 519T858 645Q855 672 853 686Q762 731 650 731Q475 731 377 645T279 407Q279 238 372 152T624 65Q716 65 778 90T902 172Q919 188 943 188Q978 188 978
147Q978 124 960 105Q908 48 813 16T632 -17Q429 -17 306 96T183 407Q183 593 312 703T635 813Z" />
<glyph unicode="d" glyph-name="null" d="M289 398Q289 256 364 161T573 65Q754 65 855 210V602Q752 731 577 731Q440 731 365 635T289 398ZM867 47L864 107Q818 52 741 18T571 -17Q397 -17 295 98T193 398Q193 580 296 696T571 813Q662 813 728 786T855 707V1091L727
1083Q726 1083 719 1082T707 1080Q690 1080 679 1091T668 1118Q668 1152 701 1159L890 1178Q906 1180 910 1180Q951 1180 951 1141V85L1099 96H1105Q1125 96 1135 86T1145 61T1135 34T1107 17L921 -3H914Q870 -3 867 47Z" />
<glyph unicode="e" glyph-name="null" d="M654 813Q814 813 914 726T1014 479Q1014 441 993 417T937 392L308 387Q313 229 408 147T657 65Q819 65 934 174Q955 191 975 191Q993 191 1004 178T1015 147Q1015 124 997 105Q945 49 848 16T665 -17Q462 -17 337 96T212
407Q212 501 247 578T342 706T483 785T654 813ZM311 461L929 465Q927 501 922 531T899 600T853 666T775 712T656 731Q510 731 420 660T311 461Z" />
<glyph unicode="f" glyph-name="null" d="M1036 1020Q1036 993 1022 979T987 964Q968 964 954 977T940 1016V1109Q768 1097 705 1036T641 832V766H950Q969 766 979 754T990 725Q990 708 979 696T949 684H640L641 82H1003Q1021 82 1031 70T1042 41Q1042 24 1032
12T1002 0H327Q305 0 293 12T281 42Q281 58 292 70T323 82H544V684H352Q330 684 318 696T306 726Q306 742 317 754T348 766H544V838Q544 1015 656 1101T979 1188Q1003 1188 1019 1174T1036 1137V1020Z" />
<glyph unicode="g" glyph-name="null" d="M548 109H641Q732 109 792 101T900 69T971 0T994 -114Q994 -192 933 -247T782 -326T585 -350Q535 -350 493 -345T410 -325T341 -288T295 -229T278 -147Q278 -75 311 -22T397 58Q303 103 303 185Q303 238 352 281T448 331Q362
366 319 414T276 545Q276 676 368 744T599 813Q743 813 838 734L990 835Q1052 877 1111 877Q1169 877 1169 826T1036 775L867 701Q924 630 924 540Q924 409 841 348T588 287Q510 287 455 259T399 190Q399 151 428 130T548 109ZM460 37Q431 26 403 -26T374 -122Q374
-205 424 -236T583 -268Q640 -268 692 -261T793 -237T869 -190T898 -118Q898 -27 844 5T644 37H460ZM828 534Q828 636 763 683T597 731Q498 731 435 684T372 542Q372 454 433 408T591 361Q828 361 828 534Z" />
<glyph unicode="h" glyph-name="null" d="M716 731Q580 731 488 657T396 497V82H501Q524 82 536 70T549 42Q549 25 536 13T499 0H196Q174 0 162 13T150 43Q150 59 161 70T192 82H300V1091L152 1082Q135 1081 124 1091T113 1118Q113 1132 121 1145T146 1159L335
1178Q351 1180 355 1180Q396 1180 396 1141V639Q434 714 521 763T711 813Q852 813 922 740T992 533V82H1101Q1120 82 1130 70T1141 42Q1141 25 1130 13T1099 0H754Q732 0 720 13T708 43Q708 59 719 70T750 82H896V540Q896 631 851 681T716 731Z" />
<glyph unicode="i" glyph-name="null" d="M658 1171T692 1171T750 1147T774 1088Q774 1054 750 1030T692 1006Q657 1006 633 1030T609 1088T633 1146ZM295 0Q273 0 261 13T249 43Q249 59 260 70T291 82H663V719L330 674Q328 674 326 674T323 673Q304 673 293 685T282
715Q282 751 314 755L712 810Q715 811 723 811Q739 811 749 803T759 779V82H1092Q1111 82 1121 70T1132 41Q1132 24 1121 12T1091 0H295Z" />
<glyph unicode="j" glyph-name="null" d="M367 -310Q344 -310 330 -297T316 -266T331 -235T374 -221Q443 -221 514 -208T651 -170T758 -100T799 -1V731H343Q322 731 311 744T299 774Q299 790 309 801T339 813H859Q895 813 895 784V-11Q895 -100 813 -170T612 -275T367
-310ZM768 1171T802 1171T860 1147T884 1088Q884 1054 860 1030T802 1006Q767 1006 743 1030T719 1088T743 1146Z" />
<glyph unicode="k" glyph-name="null" d="M464 399L847 692H744Q724 692 713 704T702 733T714 762T748 775H1065Q1085 775 1095 762T1106 729Q1106 715 1094 704T1066 692H977L660 446L1001 82H1088Q1107 82 1117 70T1128 41Q1128 24 1118 12T1088 0H775Q755 0
744 12T733 41Q733 58 745 70T779 82H889L590 400L464 308V82H535Q553 82 563 70T574 41Q574 24 564 12T534 0H200Q179 0 167 12T154 42Q154 58 165 70T196 82H368V1082L198 1058Q195 1057 191 1057Q172 1057 161 1069T150 1099Q150 1135 182 1139L416 1181Q417
1181 421 1181T428 1182Q444 1182 454 1174T464 1150V399Z" />
<glyph unicode="l" glyph-name="null" d="M719 1150V82H1059Q1077 82 1087 70T1098 41Q1098 24 1088 12T1058 0H258Q236 0 224 12T212 42Q212 58 223 70T254 82H623V1090L270 1062Q268 1062 266 1062T263 1061Q244 1061 233 1073T222 1103Q222 1139 254 1143L672
1181Q673 1181 676 1181T683 1182Q699 1182 709 1174T719 1150Z" />
<glyph unicode="m" glyph-name="null" d="M591 540Q591 638 563 684T486 731Q421 731 366 661T307 503V82H392Q415 82 427 70T440 42Q440 25 427 13T390 0H107Q85 0 73 13T61 43Q61 59 72 70T103 82H211V709L103 687Q93 684 83 684Q66 684 55 695T44 722Q44 755
77 763L241 796Q255 798 259 798Q296 798 298 759L303 639Q332 722 382 767T496 813Q555 813 602 773T671 654Q706 731 760 772T878 813Q961 813 1014 742T1067 533V82H1176Q1195 82 1205 70T1216 42Q1216 25 1205 13T1174 0H1017Q995 0 983 13T971 43V540Q971
731 872 731Q805 731 747 663T687 509V82H805Q824 82 834 70T845 42Q845 25 834 13T803 0H637Q615 0 603 13T591 43V540Z" />
<glyph unicode="n" glyph-name="null" d="M714 731Q578 731 486 658T394 503V82H499Q522 82 534 70T547 42Q547 25 534 13T497 0H194Q172 0 160 13T148 43Q148 59 159 70T190 82H298V709L190 687Q179 684 170 684Q153 684 142 695T131 722Q131 755 164 763L328
796Q342 798 346 798Q383 798 385 759L390 639Q428 714 517 763T709 813Q850 813 920 740T990 533V82H1099Q1118 82 1128 70T1139 42Q1139 25 1128 13T1097 0H752Q730 0 718 13T706 43Q706 59 717 70T748 82H894V540Q894 631 849 681T714 731Z" />
<glyph unicode="o" glyph-name="null" d="M472 65T620 65T852 157T936 398T852 639T620 731T388 639T304 398T388 157ZM429 813T620 813T927 701T1044 398Q1044 209 928 96T620 -17T313 96T196 398Q196 589 312 701Z" />
<glyph unicode="p" glyph-name="null" d="M971 398Q971 540 898 635T691 731Q506 731 405 586V194Q508 65 683 65Q820 65 895 161T971 398ZM399 690Q452 744 528 778T693 813Q866 813 966 698T1067 398Q1067 216 964 100T689 -17Q598 -17 532 10T405 89V-288H621Q641
-288 652 -299T663 -327Q663 -344 651 -357T617 -370H221Q201 -370 190 -358T179 -328Q179 -312 189 -300T219 -288H309V708L201 687Q200 687 193 686T181 684Q164 684 153 695T142 722Q142 755 175 763L339 796Q353 798 357 798Q394 798 396 759L399 690Z" />
<glyph unicode="q" glyph-name="null" d="M296 398Q296 257 371 161T584 65Q759 65 862 194V586Q761 731 576 731Q443 731 370 636T296 398ZM958 -288H1048Q1067 -288 1077 -300T1088 -328Q1088 -345 1077 -357T1046 -370H650Q628 -370 616 -357T604 -327Q604
-311 615 -300T646 -288H862V89Q802 37 736 10T578 -17Q406 -17 303 99T200 398Q200 583 300 698T574 813Q664 813 739 780T866 694Q866 742 874 766T892 795T917 800Q936 800 947 785T958 724V-288Z" />
<glyph unicode="r" glyph-name="null" d="M920 731Q786 731 683 679T540 526V82H876Q895 82 905 70T916 41Q916 25 905 13T875 0H265Q243 0 231 12T219 42Q219 58 230 70T261 82H444V709L322 684Q318 683 310 683Q291 683 281 695T270 723Q270 755 300 761L471
795Q485 798 494 798Q516 798 523 784T532 742L536 638Q650 813 928 813Q1016 813 1016 753V615Q1016 588 1002 574T967 559Q948 559 934 572T920 611V731Z" />
<glyph unicode="s" glyph-name="null" d="M609 813Q696 813 777 787T888 721V758Q887 781 900 794T930 808T959 795T971 759L969 558Q964 521 929 521Q904 521 897 540T889 606Q836 731 602 731Q390 731 390 601Q390 555 418 527T517 482L776 430Q873 411 925
361T978 208Q978 96 890 40T652 -17Q446 -17 342 102V42Q342 21 332 11T306 0Q290 0 278 11T266 39L268 265Q268 291 279 304T304 317Q321 317 330 307T340 265Q340 180 428 123T646 65Q881 65 881 209Q881 260 854 291T763 335L497 387Q287 427 287 586Q287 650
314 696T390 767T492 802T609 813Z" />
<glyph unicode="t" glyph-name="null" d="M505 204Q505 132 552 99T677 65Q747 65 822 89T946 150Q950 154 957 154Q971 154 985 137T999 103Q999 95 994 88Q961 49 864 16T667 -17Q563 -17 486 38T409 169V692H266Q244 692 232 705T220 735Q220 751 231 762T262
774H409Q409 951 418 1004T469 1058Q491 1058 498 1047T505 1013V774H877Q895 774 905 762T916 733Q916 716 906 704T876 692H505V204Z" />
<glyph unicode="u" glyph-name="null" d="M562 65Q652 65 742 113T866 231V706L769 686Q760 683 751 683Q730 683 717 696T704 726Q704 758 742 765L916 800Q924 802 928 802Q943 802 952 792T962 768V85L1110 96H1116Q1136 96 1146 86T1156 61T1146 34T1118 17L932
-3H925Q881 -3 878 47L873 134Q829 69 742 26T561 -17Q425 -17 348 59T270 262V706L172 686Q166 684 155 684Q135 684 122 697T109 727Q109 758 145 765L320 800Q328 802 332 802Q347 802 356 792T366 768V259Q366 172 415 119T562 65Z" />
<glyph unicode="v" glyph-name="null" d="M491 774Q530 774 530 732Q530 692 492 692H383L650 92L894 692H809Q770 692 770 732Q770 774 810 774H1071Q1117 774 1117 733T1075 692H986L719 54Q701 11 686 -1T647 -14Q623 -14 606 -1T567 59L273 692H172Q130 692
130 733T176 774H491Z" />
<glyph unicode="w" glyph-name="null" d="M765 774Q804 774 804 732Q804 692 766 692H657L869 92L1038 692H973Q934 692 934 732Q934 774 974 774H1195Q1241 774 1241 733T1199 692H1130L938 54Q925 12 908 -1T866 -14Q850 -14 839 -10T813 11T786 59L651 433L507
54Q491 11 475 -1T435 -14Q418 -14 407 -11T381 10T355 59L146 692H68Q26 692 26 733T72 774H307Q346 774 346 732Q346 692 308 692H256L438 92L607 555L558 692H507Q465 692 465 733T511 774H765Z" />
<glyph unicode="x" glyph-name="null" d="M778 0Q751 0 737 12T722 42Q722 58 735 70T773 82H853L628 340L407 82H466Q504 82 504 42Q504 0 464 0H217Q171 0 171 42Q171 82 213 82H297L570 406L320 692H232Q186 692 186 734Q186 774 228 774H465Q503 774 503 734Q503
692 463 692H423L623 469L811 692H766Q720 692 720 734Q720 774 762 774H1029Q1068 774 1068 734Q1068 692 1027 692H929L682 403L970 82H1041Q1064 82 1077 70T1090 42Q1090 25 1077 13T1039 0H778Z" />
<glyph unicode="y" glyph-name="null" d="M488 774Q529 774 529 732Q529 692 490 692H388L643 95L871 692H782Q743 692 743 732Q743 774 783 774H1048Q1094 774 1094 733T1052 692H973L670 -83Q619 -214 549 -287T371 -361Q303 -361 303 -309Q303 -261 371 -261Q426
-261 476 -224T543 -141L597 -2Q533 131 421 385T284 692H191Q150 692 150 732Q150 774 196 774H488Z" />
<glyph unicode="z" glyph-name="null" d="M896 772Q957 772 957 727Q957 700 939 682L387 82H902L913 319Q914 336 927 346T957 357T986 346T998 315V46Q998 28 982 14T947 0H334Q278 0 278 59Q278 90 295 109L829 692H368L360 495Q359 474 347 462T318 450Q300
450 287 463T273 500V726Q273 744 287 758T319 772H896Z" />
<glyph unicode="{" glyph-name="null" d="M657 658Q657 634 657 622T651 591T637 562T611 541T568 526Q599 519 618 506T645 470T655 432T657 385Q657 319 627 181T597 -15Q597 -88 654 -115T860 -143Q873 -143 880 -155T888 -185T881 -214T860 -227Q780 -227
722 -221T624 -201T561 -168T523 -122T506 -64T502 8Q502 83 533 206T564 385Q564 426 537 446T441 467Q420 467 407 485T394 529Q394 552 406 568T441 585Q512 585 538 601T564 657Q564 712 533 835T502 1034Q502 1086 508 1119T535 1183T595 1232T699 1259T860
1270Q873 1270 880 1258T888 1228T881 1199T860 1186Q711 1186 654 1159T597 1058Q597 1000 627 862T657 658Z" />
<glyph unicode="|" glyph-name="null" d="M701 1257Q754 1257 759 1208V-67Q759 -87 740 -99T699 -112Q639 -112 639 -56V1208Q639 1231 657 1244T701 1257Z" />
<glyph unicode="}" glyph-name="null" d="M614 385Q614 409 614 421T620 452T634 481T660 502T703 517Q672 524 653 537T626 573T616 611T614 658Q614 724 644 862T674 1058Q674 1131 617 1158T411 1186Q398 1186 391 1198T383 1228T390 1257T411 1270Q491 1270
549 1264T647 1244T710 1211T748 1165T765 1107T769 1035Q769 960 738 837T707 658Q707 617 734 597T830 576Q851 576 864 558T877 514Q877 491 865 475T830 458Q759 458 733 442T707 386Q707 331 738 208T769 9Q769 -43 763 -76T736 -140T676 -189T572 -216T411
-227Q398 -227 391 -215T383 -185T390 -156T411 -143Q560 -143 617 -116T674 -15Q674 43 644 181T614 385Z" />
<glyph unicode="~" glyph-name="null" d="M350 727Q350 811 394 866T501 922Q557 922 615 903T713 860T789 818T846 798Q873 798 893 809T926 837T949 869T972 896T998 908Q1048 908 1048 872Q1048 788 997 733T872 678Q815 678 746 709T617 770T521 801Q494 801
474 784T445 746T425 708T400 691Q379 691 365 700T350 727Z" />
<glyph unicode="&#xa0;" glyph-name="null" />
<glyph unicode="&#xa1;" glyph-name="null" d="M555 -234Q555 -120 575 122T595 489Q595 525 619 525T643 489Q643 363 664 122T685 -234Q685 -281 668 -299T619 -318Q555 -318 555 -234ZM577 878T620 878T692 849T722 776T693 705T620 676T548 704T519 776T548 848Z" />
<glyph unicode="&#xa2;" glyph-name="null" d="M617 990T634 990T655 983T660 956V951V813Q800 809 886 753Q979 693 979 564Q979 528 964 506T919 484T879 519T858 645Q855 672 853 686Q766 729 660 731V66Q729 70 778 90Q840 115 902 172Q919 188 943 188Q978
188 978 147Q978 124 960 105Q908 48 812 16Q732 -11 660 -16V-189Q660 -213 655 -224T634 -236Q617 -236 612 -226T607 -190V-17Q421 -10 306 96Q183 210 183 407Q182 593 312 703Q432 805 607 812V951Q607 972 612 981ZM607 730Q463 721 377 645Q279 559 279
407Q278 238 372 152Q460 70 607 65V730Z" />
<glyph unicode="&#xa3;" glyph-name="null" d="M250 130Q250 182 290 216T390 251Q487 251 574 161Q586 184 586 229Q586 315 550 430T456 618H287Q276 618 269 630T262 658Q262 695 285 695H427Q423 705 398 755T363 841T353 921Q353 1036 440 1110T649 1184Q747
1184 809 1168T911 1104Q919 1095 921 1092T927 1082T932 1069T933 1053Q933 1020 908 999T849 977Q835 977 824 992T800 1028T771 1070T723 1106T651 1121Q573 1121 516 1071T458 923Q458 833 522 695H757Q768 695 774 684T781 657T774 630T756 618H551Q554 609
588 545T648 407T674 263Q674 188 644 128Q698 84 749 69T872 53Q882 53 900 74T943 117T995 139Q1015 139 1031 121T1047 82Q1047 55 1035 36T1004 7T958 -8T905 -15T848 -17Q769 -17 716 3T587 72Q495 -16 395 -16Q332 -16 291 23T250 130ZM404 48Q464 48 531
116Q453 191 396 191Q366 191 349 172T329 128V122Q329 90 349 69T404 48Z" />
<glyph unicode="&#xa4;" glyph-name="null" d="M459 358L371 271Q356 256 339 261T318 281T328 314L414 400Q361 465 361 558Q361 649 414 717L328 803Q313 818 318 835T340 855T372 845L457 760Q524 811 616 811Q710 811 774 760L858 843Q873 858 890 853T911
832T901 799L817 715Q863 650 863 563Q863 473 810 405L900 315Q915 300 910 283T890 263T857 273L768 362Q703 313 611 313Q522 313 459 358ZM616 368Q704 368 752 422T801 560Q801 645 753 700T615 756T478 701T430 560Q430 478 479 423T616 368Z" />
<glyph unicode="&#xa5;" glyph-name="null" d="M956 578Q995 578 995 542T956 506H689V369H956Q995 369 995 333T956 297H689V86H921Q944 86 956 74T969 44Q969 26 956 13T919 0H334Q310 0 296 13T282 44Q282 61 295 73T332 86H593V297H318Q279 297 279 333T318
369H593V506H318Q279 506 279 542T318 578H578L258 1095H174Q151 1095 138 1106T124 1133T138 1159T175 1171H505Q529 1171 542 1160T556 1133T543 1107T506 1095H370L646 633L914 1095H803Q780 1095 767 1106T753 1133T766 1159T804 1171H1065Q1089 1171 1102
1160T1116 1132Q1116 1117 1103 1106T1067 1095H1012L707 578H956Z" />
<glyph unicode="&#xa6;" glyph-name="null" d="M664 -56Q664 -68 651 -74T621 -81Q603 -81 590 -75T577 -56V412Q577 427 590 435T621 443Q638 443 651 435T664 412V-56ZM664 704Q664 693 651 686T621 679Q603 679 590 686T577 704V1172Q577 1187 590 1195T621
1203Q638 1203 651 1195T664 1172V704Z" />
<glyph unicode="&#xa7;" glyph-name="null" d="M428 924T428 1005T484 1138T627 1190Q707 1190 773 1148T840 1041Q840 1023 829 1013T800 1002Q763 1002 753 1033Q721 1117 631 1117Q586 1117 554 1090T521 1020Q521 977 544 939Q574 888 652 808T746 707Q783
661 804 618T825 522Q825 464 801 415T734 346Q804 245 804 168Q804 86 749 35T607 -17Q527 -17 461 24T394 131Q394 149 405 160T435 171Q470 171 481 140Q513 56 601 56Q647 56 679 83T712 152Q712 196 690 234Q660 285 584 363T488 465Q408 563 408 651Q408
709 432 758T500 827Q428 924 428 1005ZM536 782Q498 751 498 690Q498 652 520 613Q541 576 569 541T639 458T698 391Q736 421 736 484Q736 520 713 560Q692 597 664 633T595 714T536 782Z" />
<glyph unicode="&#xa8;" glyph-name="null" d="M867 1143Q901 1143 925 1119T949 1060Q949 1026 926 1002T867 978T808 1002T784 1060T808 1118T867 1143ZM498 1143T532 1143T590 1119T614 1060Q614 1026 590 1002T532 978Q497 978 473 1002T449 1060T473 1118Z" />
<glyph unicode="&#xa9;" glyph-name="null" d="M128 824T128 583T253 213T620 83T987 213T1113 583Q1113 825 987 957T620 1089T254 957ZM1193 581Q1193 310 1043 162T620 13T198 161T48 581Q48 854 198 1006T620 1158T1042 1006T1193 581ZM923 443Q905 361 825
297T627 232Q478 232 386 331T293 596Q293 748 389 847T631 946Q702 946 759 916T842 839V909Q842 922 851 930T873 938T894 930T903 908V730Q903 717 895 710T875 703Q853 703 845 730Q798 884 631 884Q515 884 444 803T373 597Q373 457 443 378T627 298Q803 298
866 456Q875 476 894 476Q906 476 915 469T924 449Q924 448 924 446T923 443Z" />
<glyph unicode="&#xaa;" glyph-name="null" d="M599 757Q519 757 452 727Q450 675 441 649T408 623Q389 623 379 636T369 671Q369 733 433 772T600 812Q658 812 697 796T758 746T789 669T798 565V356Q798 332 807 324T833 315Q850 315 869 325T900 348Q907 356
916 356Q926 356 933 348T941 328Q941 318 934 311Q887 262 827 262Q794 262 771 278T739 343Q706 306 648 281T520 256Q445 256 403 297T361 408Q361 432 367 452T383 488T410 516T442 537T484 552T528 563T579 570T631 575T686 579Q718 581 734 582V596Q734 674
704 715T599 757ZM734 536Q579 521 536 511Q452 492 433 447Q426 430 426 408Q426 357 453 334T527 311Q586 311 642 333T734 394V536Z" />
<glyph unicode="&#xab;" glyph-name="null" d="M918 216L574 475Q536 504 536 530Q536 557 574 586L908 841Q924 852 938 852Q955 852 966 842T978 816Q978 795 954 777L633 531L963 287Q994 264 994 238Q994 223 983 213T956 202Q936 202 918 216ZM554 216L210
475Q172 504 172 530Q172 557 210 586L544 841Q560 852 574 852Q591 852 602 842T614 816Q614 795 590 777L269 531L599 287Q630 264 630 238Q630 223 619 213T592 202Q572 202 554 216Z" />
<glyph unicode="&#xac;" glyph-name="null" d="M301 546H858Q918 546 918 488V214Q918 188 903 173T868 158Q849 158 835 171T821 210V460H301Q276 460 264 472T252 502T264 533T301 546Z" />
<glyph unicode="&#xad;" glyph-name="null" d="M895 533Q916 533 928 521T940 490Q940 473 928 460T895 447H345Q324 447 312 460T300 490Q300 508 312 520T345 533H895Z" />
<glyph unicode="&#xae;" glyph-name="null" d="M1193 581Q1193 310 1043 162T620 13T198 161T48 581Q48 854 198 1006T620 1158T1042 1006T1193 581ZM128 824T128 583T253 213T620 83T987 213T1113 583Q1113 825 987 957T620 1089T254 957ZM514 623L573 624Q602
625 615 625T654 628T694 635T727 648T755 669T772 701T779 745Q779 780 769 804T743 843T698 865T640 875T564 878H514V623ZM633 273Q633 263 626 254T605 245H380Q367 245 359 254T351 273Q351 284 358 292T379 301H443V878H395Q382 878 375 887T367 907T374
927T396 937H578Q645 937 690 930T774 904T832 846T851 749Q851 686 819 646T737 587L841 301H878Q915 301 915 274Q915 262 907 254T879 245H732Q718 245 711 254T703 274Q703 284 710 292T730 301H759L671 574Q666 572 624 569T561 565H514V301H605Q618 301 625
293T633 273Z" />
<glyph unicode="&#xaf;" glyph-name="null" d="M883 1033H521Q470 1033 470 1076T520 1119H881Q930 1119 930 1076T883 1033Z" />
<glyph unicode="&#xb0;" glyph-name="null" d="M703 1121Q820 1121 885 1048T950 873T883 698T698 623T514 695T448 868Q448 970 516 1045T703 1121ZM640 719T707 719T809 762T845 870Q845 936 808 980T702 1024T597 980T560 870Q560 807 600 763Z" />
<glyph unicode="&#xb1;" glyph-name="null" d="M924 558Q967 558 967 517T924 476H669V235Q669 210 655 197T621 183T587 196T573 235V476H316Q273 476 273 517Q273 534 283 546T316 558H573V804Q573 829 587 842T621 856T655 843T669 804V558H924ZM316 82H924Q967
82 967 41T924 0H316Q273 0 273 41T316 82Z" />
<glyph unicode="&#xb2;" glyph-name="null" d="M821 1007Q821 950 792 899T718 805T628 722T543 629T491 520H772L779 624Q780 640 789 649T810 659Q837 659 837 619V495Q837 476 828 466T805 455H423Q419 473 419 484Q419 533 437 579T485 663T549 737T619 805T684
869T731 935T750 1001Q750 1064 711 1098T609 1133T489 1101Q479 995 472 978Q465 962 450 962Q414 962 414 1025Q414 1102 470 1144T606 1187Q692 1187 756 1139T821 1007Z" />
<glyph unicode="&#xb3;" glyph-name="null" d="M564 790Q536 790 536 818Q536 835 558 848Q575 858 609 878T657 907T695 934T727 963T745 994T753 1032Q753 1071 724 1097T638 1124Q597 1124 570 1118T532 1102T512 1082T491 1066T460 1059Q446 1059 438 1066T430
1084Q430 1115 469 1140T555 1176T640 1187Q719 1187 771 1146T823 1032Q823 925 659 845Q758 841 813 783T868 633Q868 522 789 450T592 378Q522 378 461 405T400 465Q400 473 408 481T429 490Q453 490 471 478T517 454T594 442Q687 442 742 496T798 637Q798 711
753 753T631 796Q620 796 594 793T564 790Z" />
<glyph unicode="&#xb4;" glyph-name="null" d="M858 1216L536 982Q532 978 525 978Q516 978 509 984T501 1000Q501 1008 508 1015L779 1291Q793 1305 810 1305Q833 1305 852 1285T872 1244Q872 1226 858 1216Z" />
<glyph unicode="&#xb5;" glyph-name="null" d="M562 65Q652 65 742 113T866 231V706L769 686Q760 683 751 683Q730 683 717 696T704 726Q704 758 742 765L916 800Q924 802 928 802Q943 802 952 792T962 768V85L1110 96H1116Q1136 96 1146 86T1156 61T1146 34T1118
17L932 -3H925Q881 -3 878 47L873 134Q829 69 742 26T561 -17Q417 -17 337 71Q374 -196 385 -257Q387 -273 387 -278Q387 -311 369 -327T327 -343Q300 -343 285 -320T270 -256V706L172 686Q166 684 155 684Q135 684 122 697T109 727Q109 758 145 765L320 800Q328
802 332 802Q347 802 356 792T366 768V259Q366 172 415 119T562 65Z" />
<glyph unicode="&#xb6;" glyph-name="null" d="M636 82H794V1089H636V82ZM890 1171L892 82H1073Q1092 82 1102 71T1112 43Q1112 26 1101 13T1071 0H333Q314 0 303 13T292 43Q292 59 302 70T331 82H540V611Q446 611 374 654T267 763T232 903Q232 1014 314 1092T554
1171H890Z" />
<glyph unicode="&#xb7;" glyph-name="null" d="M699 680Q733 680 757 656T781 597T758 539T699 515T640 539T616 597Q616 632 640 656T699 680Z" />
<glyph unicode="&#xb8;" glyph-name="null" d="M180 0L139 -321Q134 -363 117 -382T77 -401Q54 -401 41 -387T28 -347Q28 -330 36 -306L143 0H180Z" />
<glyph unicode="&#xb9;" glyph-name="null" d="M658 1140V455H764Q777 455 784 446T792 425T785 405T763 396H468Q452 396 443 405T434 426Q434 437 442 446T465 455H589V1096L465 1041Q459 1038 453 1038Q441 1038 433 1048T424 1070Q424 1088 441 1095L614 1171Q620
1174 628 1174Q658 1174 658 1140Z" />
<glyph unicode="&#xba;" glyph-name="null" d="M702 451Q617 451 570 397T522 255Q522 166 569 112T702 57Q785 57 831 112T878 255T832 396T702 451ZM702 -20Q576 -20 499 55T421 255Q421 381 498 455T702 529Q826 529 901 454T977 255T902 56T702 -20Z" />
<glyph unicode="&#xbb;" glyph-name="null" d="M270 831L614 572Q652 543 652 517Q652 490 614 461L280 206Q264 195 250 195Q233 195 222 205T210 231Q210 252 234 270L555 516L225 760Q194 783 194 809Q194 824 205 834T232 845Q252 845 270 831ZM634 831L978
572Q1016 543 1016 517Q1016 490 978 461L644 206Q628 195 614 195Q597 195 586 205T574 231Q574 252 598 270L919 516L589 760Q558 783 558 809Q558 824 569 834T596 845Q616 845 634 831Z" />
<glyph unicode="&#xbc;" glyph-name="null" d="M322 79L934 1099Q943 1115 961 1115Q975 1115 985 1107T996 1086Q996 1078 992 1070L382 52Q371 34 354 34Q340 34 330 43T319 65Q319 74 322 79ZM961 667L743 301H961V667ZM786 1Q773 1 766 10T759 32Q759 44 766
53T785 63H961V245H690Q679 245 670 255T660 279Q660 288 668 301L977 794Q982 804 1005 804Q1036 804 1036 762V301H1155Q1168 301 1175 293T1182 273T1174 254T1153 245H1036V63H1160Q1173 63 1180 54T1188 33Q1188 20 1180 11T1159 1H786ZM269 1085V399H375Q388
399 395 391T403 370T396 349T374 340H78Q62 340 54 349T45 371Q45 382 53 390T75 399H199V1041L76 985Q70 982 64 982Q52 982 43 992T34 1015Q34 1033 51 1040L225 1116Q231 1119 239 1119Q269 1119 269 1085Z" />
<glyph unicode="&#xbd;" glyph-name="null" d="M295 79L907 1099Q916 1115 934 1115Q948 1115 958 1107T969 1086Q969 1078 965 1070L355 52Q344 34 327 34Q313 34 303 43T292 65Q292 74 295 79ZM269 1085V399H375Q388 399 395 391T403 370T396 349T374 340H78Q62
340 54 349T45 371Q45 382 53 390T75 399H199V1041L76 985Q70 982 64 982Q52 982 43 992T34 1015Q34 1033 51 1040L225 1116Q231 1119 239 1119Q269 1119 269 1085ZM1167 552Q1167 495 1138 444T1064 350T974 267T889 174T837 65H1118L1125 169Q1126 185 1135 194T1156
204Q1183 204 1183 164V40Q1183 21 1174 11T1151 0H769Q765 18 765 29Q765 78 783 124T831 208T895 282T965 350T1030 414T1077 480T1096 546Q1096 609 1057 644T955 679Q895 679 835 646Q825 540 818 523Q811 507 796 507Q760 507 760 570Q760 647 816 689T952
732Q1038 732 1102 684T1167 552Z" />
<glyph unicode="&#xbe;" glyph-name="null" d="M180 725Q152 725 152 753Q152 770 174 783Q190 793 224 813T273 843T310 869T342 898T360 929T368 967Q368 1006 340 1032T254 1059Q213 1059 186 1053T148 1036T128 1017T108 1001T76 994Q62 994 54 1001T46 1019Q46
1050 85 1075T171 1111T256 1122Q335 1122 387 1081T439 967Q439 860 275 780Q374 776 429 718T484 568Q484 457 405 385T208 313Q138 313 77 340T16 400Q16 408 24 416T45 425Q69 425 87 413T133 389T210 377Q303 377 358 431T413 572Q413 646 369 688T247 731Q236
731 210 728T180 725ZM341 79L953 1099Q962 1115 980 1115Q994 1115 1004 1107T1015 1086Q1015 1078 1011 1070L401 52Q390 34 373 34Q359 34 349 43T338 65Q338 74 341 79ZM985 667L767 301H985V667ZM810 1Q797 1 790 10T783 32Q783 44 790 53T809 63H985V245H714Q703
245 694 255T684 279Q684 288 692 301L1001 794Q1006 804 1029 804Q1060 804 1060 762V301H1179Q1192 301 1199 293T1206 273T1198 254T1177 245H1060V63H1184Q1197 63 1204 54T1212 33Q1212 20 1204 11T1183 1H810Z" />
<glyph unicode="&#xbf;" glyph-name="null" d="M300 -37Q300 24 324 79T385 173T465 250T544 321T605 393T630 475Q630 504 636 517T662 531Q678 531 685 523T694 505T696 476Q696 415 671 363T609 273T533 196T462 107T421 -5Q418 -25 418 -43Q418 -132 476 -187T635
-242Q720 -242 784 -213Q785 -205 786 -186T788 -156T790 -128T794 -100T800 -75T809 -53T820 -37T836 -26T856 -22Q905 -22 905 -102Q905 -202 830 -260T632 -319Q484 -319 392 -246T300 -37ZM613 878T656 878T728 849T758 776T729 704T656 675T584 703T555 775T584
848Z" />
<glyph unicode="&#xc0;" glyph-name="null" d="M829 1385Q829 1372 819 1361T796 1350Q788 1350 784 1354Q726 1388 444 1564Q425 1577 425 1595Q425 1616 443 1634T483 1652Q500 1652 511 1642Q669 1506 819 1406Q829 1400 829 1385ZM425 475H845L646 1072L425
475ZM90 0Q66 0 53 12T40 43Q40 60 53 73T89 86H174L559 1085H342Q318 1085 305 1097T292 1128Q292 1145 305 1158T341 1171H644Q702 1171 725 1106L1087 86H1166Q1189 86 1201 74T1214 44Q1214 26 1201 13T1164 0H798Q774 0 761 13T747 44Q747 61 760 73T796 86H982L875
392H392L280 86H439Q462 86 475 73T489 43Q489 25 476 13T438 0H90Z" />
<glyph unicode="&#xc1;" glyph-name="null" d="M798 1588L476 1354Q472 1350 465 1350Q456 1350 449 1356T441 1372Q441 1380 448 1387L719 1663Q733 1677 750 1677Q773 1677 792 1657T812 1616Q812 1598 798 1588ZM425 475H845L646 1072L425 475ZM90 0Q66 0 53
12T40 43Q40 60 53 73T89 86H174L559 1085H342Q318 1085 305 1097T292 1128Q292 1145 305 1158T341 1171H644Q702 1171 725 1106L1087 86H1166Q1189 86 1201 74T1214 44Q1214 26 1201 13T1164 0H798Q774 0 761 13T747 44Q747 61 760 73T796 86H982L875 392H392L280
86H439Q462 86 475 73T489 43Q489 25 476 13T438 0H90Z" />
<glyph unicode="&#xc2;" glyph-name="null" d="M627 1691Q652 1691 659 1679L843 1396Q850 1389 850 1379Q850 1367 839 1359T813 1350Q796 1350 790 1359L627 1568L465 1359Q459 1350 442 1350Q428 1350 417 1358T405 1379Q405 1389 412 1396L596 1679Q604 1691
627 1691ZM425 475H845L646 1072L425 475ZM90 0Q66 0 53 12T40 43Q40 60 53 73T89 86H174L559 1085H342Q318 1085 305 1097T292 1128Q292 1145 305 1158T341 1171H644Q702 1171 725 1106L1087 86H1166Q1189 86 1201 74T1214 44Q1214 26 1201 13T1164 0H798Q774
0 761 13T747 44Q747 61 760 73T796 86H982L875 392H392L280 86H439Q462 86 475 73T489 43Q489 25 476 13T438 0H90Z" />
<glyph unicode="&#xc3;" glyph-name="null" d="M500 1528Q504 1528 516 1526Q552 1519 639 1474T748 1429Q757 1429 764 1433T779 1447T791 1463T803 1485T813 1505Q817 1513 830 1513Q847 1513 864 1501T878 1475Q830 1350 752 1350Q743 1350 725 1354Q684 1365
610 1403T511 1447Q508 1448 502 1448Q468 1448 439 1380Q433 1368 417 1368Q403 1368 390 1376T376 1396Q376 1441 415 1484T500 1528ZM425 475H845L646 1072L425 475ZM90 0Q66 0 53 12T40 43Q40 60 53 73T89 86H174L559 1085H342Q318 1085 305 1097T292 1128Q292
1145 305 1158T341 1171H644Q702 1171 725 1106L1087 86H1166Q1189 86 1201 74T1214 44Q1214 26 1201 13T1164 0H798Q774 0 761 13T747 44Q747 61 760 73T796 86H982L875 392H392L280 86H439Q462 86 475 73T489 43Q489 25 476 13T438 0H90Z" />
<glyph unicode="&#xc4;" glyph-name="null" d="M795 1474Q829 1474 853 1450T877 1391Q877 1357 854 1333T795 1309T736 1333T712 1391T736 1449T795 1474ZM426 1474T460 1474T518 1450T542 1391Q542 1357 518 1333T460 1309Q425 1309 401 1333T377 1391T401 1449ZM425
475H845L646 1072L425 475ZM90 0Q66 0 53 12T40 43Q40 60 53 73T89 86H174L559 1085H342Q318 1085 305 1097T292 1128Q292 1145 305 1158T341 1171H644Q702 1171 725 1106L1087 86H1166Q1189 86 1201 74T1214 44Q1214 26 1201 13T1164 0H798Q774 0 761 13T747 44Q747
61 760 73T796 86H982L875 392H392L280 86H439Q462 86 475 73T489 43Q489 25 476 13T438 0H90Z" />
<glyph unicode="&#xc5;" glyph-name="null" d="M630 1516Q710 1516 754 1466T799 1347T753 1227T627 1176T502 1226T456 1344Q456 1413 502 1464T630 1516ZM586 1241T632 1241T702 1270T726 1345T701 1420T629 1450Q582 1450 557 1420T532 1345Q532 1302 559 1272ZM425
475H845L646 1072L425 475ZM90 0Q66 0 53 12T40 43Q40 60 53 73T89 86H174L559 1085H342Q318 1085 305 1097T292 1128Q292 1145 305 1158T341 1171H644Q702 1171 725 1106L1087 86H1166Q1189 86 1201 74T1214 44Q1214 26 1201 13T1164 0H798Q774 0 761 13T747 44Q747
61 760 73T796 86H982L875 392H392L280 86H439Q462 86 475 73T489 43Q489 25 476 13T438 0H90Z" />
<glyph unicode="&#xc6;" glyph-name="null" d="M642 475V1085H545L354 475H642ZM88 0Q64 0 51 12T38 43Q38 60 51 73T87 86H138L463 1085H301Q277 1085 264 1097T251 1128Q251 1145 264 1158T300 1171H1050Q1075 1171 1090 1157T1106 1117V893Q1106 872 1094 861T1066
849T1039 859T1027 887L1013 1085H729V637H871L884 740Q886 761 897 773T924 785Q940 785 951 772T962 732V460Q962 435 951 422T924 409Q909 409 897 420T884 452L871 560H729V85H1016L1032 296Q1033 313 1045 324T1073 335Q1090 335 1102 322T1115 283V53Q1115
28 1100 14T1059 0H613Q589 0 576 13T562 43T575 72T612 85H642V392H327L231 86H398Q421 86 434 73T448 43Q448 25 435 13T397 0H88Z" />
<glyph unicode="&#xc7;" glyph-name="null" d="M658 -4L617 -325Q612 -367 595 -386T555 -405Q532 -405 519 -391T506 -351Q506 -334 514 -310L621 -4H658ZM1145 336Q1130 270 1095 210T1003 97T860 14T669 -17Q434 -17 283 154T132 607Q132 865 283 1026T668
1187Q785 1187 883 1139T1022 1015V1121Q1022 1144 1036 1157T1071 1171T1105 1158T1120 1120V827Q1120 804 1107 792T1074 780Q1034 780 1026 827Q1003 950 905 1025T671 1101Q468 1101 348 961T228 600Q228 477 264 376T361 208T501 105T670 69Q812 69 910 146T1049
359Q1059 387 1089 387Q1110 387 1128 374T1146 343Q1146 338 1145 336Z" />
<glyph unicode="&#xc8;" glyph-name="null" d="M822 1385Q822 1372 812 1361T789 1350Q781 1350 777 1354Q719 1388 437 1564Q418 1577 418 1595Q418 1616 436 1634T476 1652Q493 1652 504 1642Q662 1506 812 1406Q822 1400 822 1385ZM837 437Q837 412 826 399T799
386Q784 386 772 397T759 429L746 577H420V85H1035L1051 336Q1052 353 1065 364T1095 375T1124 362T1137 323V53Q1137 28 1122 14T1081 0H155Q131 0 118 13T104 43T117 72T154 85H324V1085H189Q166 1085 154 1097T141 1127Q141 1145 154 1158T191 1171H1069Q1094
1171 1109 1157T1125 1117V847Q1125 826 1113 815T1085 803T1057 813T1043 841L1029 1085H420V654H746L759 787Q761 808 772 820T799 832Q815 832 826 819T837 779V437Z" />
<glyph unicode="&#xc9;" glyph-name="null" d="M792 1588L470 1354Q466 1350 459 1350Q450 1350 443 1356T435 1372Q435 1380 442 1387L713 1663Q727 1677 744 1677Q767 1677 786 1657T806 1616Q806 1598 792 1588ZM837 437Q837 412 826 399T799 386Q784 386 772
397T759 429L746 577H420V85H1035L1051 336Q1052 353 1065 364T1095 375T1124 362T1137 323V53Q1137 28 1122 14T1081 0H155Q131 0 118 13T104 43T117 72T154 85H324V1085H189Q166 1085 154 1097T141 1127Q141 1145 154 1158T191 1171H1069Q1094 1171 1109 1157T1125
1117V847Q1125 826 1113 815T1085 803T1057 813T1043 841L1029 1085H420V654H746L759 787Q761 808 772 820T799 832Q815 832 826 819T837 779V437Z" />
<glyph unicode="&#xca;" glyph-name="null" d="M620 1691Q645 1691 652 1679L836 1396Q843 1389 843 1379Q843 1367 832 1359T806 1350Q789 1350 783 1359L620 1568L458 1359Q452 1350 435 1350Q421 1350 410 1358T398 1379Q398 1389 405 1396L589 1679Q597 1691
620 1691ZM837 437Q837 412 826 399T799 386Q784 386 772 397T759 429L746 577H420V85H1035L1051 336Q1052 353 1065 364T1095 375T1124 362T1137 323V53Q1137 28 1122 14T1081 0H155Q131 0 118 13T104 43T117 72T154 85H324V1085H189Q166 1085 154 1097T141 1127Q141
1145 154 1158T191 1171H1069Q1094 1171 1109 1157T1125 1117V847Q1125 826 1113 815T1085 803T1057 813T1043 841L1029 1085H420V654H746L759 787Q761 808 772 820T799 832Q815 832 826 819T837 779V437Z" />
<glyph unicode="&#xcb;" glyph-name="null" d="M789 1474Q823 1474 847 1450T871 1391Q871 1357 848 1333T789 1309T730 1333T706 1391T730 1449T789 1474ZM420 1474T454 1474T512 1450T536 1391Q536 1357 512 1333T454 1309Q419 1309 395 1333T371 1391T395 1449ZM837
437Q837 412 826 399T799 386Q784 386 772 397T759 429L746 577H420V85H1035L1051 336Q1052 353 1065 364T1095 375T1124 362T1137 323V53Q1137 28 1122 14T1081 0H155Q131 0 118 13T104 43T117 72T154 85H324V1085H189Q166 1085 154 1097T141 1127Q141 1145 154
1158T191 1171H1069Q1094 1171 1109 1157T1125 1117V847Q1125 826 1113 815T1085 803T1057 813T1043 841L1029 1085H420V654H746L759 787Q761 808 772 820T799 832Q815 832 826 819T837 779V437Z" />
<glyph unicode="&#xcc;" glyph-name="null" d="M854 1385Q854 1372 844 1361T821 1350Q813 1350 809 1354Q751 1388 469 1564Q450 1577 450 1595Q450 1616 468 1634T508 1652Q525 1652 536 1642Q694 1506 844 1406Q854 1400 854 1385ZM310 0Q286 0 273 12T259
43Q259 60 272 73T309 86H614V1085H309Q286 1085 273 1097T259 1127Q259 1145 272 1158T310 1171H995Q1018 1171 1031 1158T1045 1127Q1045 1110 1032 1098T996 1085H710V86H996Q1019 86 1032 73T1045 43Q1045 25 1032 13T995 0H310Z" />
<glyph unicode="&#xcd;" glyph-name="null" d="M823 1588L501 1354Q497 1350 490 1350Q481 1350 474 1356T466 1372Q466 1380 473 1387L744 1663Q758 1677 775 1677Q798 1677 817 1657T837 1616Q837 1598 823 1588ZM310 0Q286 0 273 12T259 43Q259 60 272 73T309
86H614V1085H309Q286 1085 273 1097T259 1127Q259 1145 272 1158T310 1171H995Q1018 1171 1031 1158T1045 1127Q1045 1110 1032 1098T996 1085H710V86H996Q1019 86 1032 73T1045 43Q1045 25 1032 13T995 0H310Z" />
<glyph unicode="&#xce;" glyph-name="null" d="M651 1691Q676 1691 683 1679L867 1396Q874 1389 874 1379Q874 1367 863 1359T837 1350Q820 1350 814 1359L651 1568L489 1359Q483 1350 466 1350Q452 1350 441 1358T429 1379Q429 1389 436 1396L620 1679Q628 1691
651 1691ZM310 0Q286 0 273 12T259 43Q259 60 272 73T309 86H614V1085H309Q286 1085 273 1097T259 1127Q259 1145 272 1158T310 1171H995Q1018 1171 1031 1158T1045 1127Q1045 1110 1032 1098T996 1085H710V86H996Q1019 86 1032 73T1045 43Q1045 25 1032 13T995
0H310Z" />
<glyph unicode="&#xcf;" glyph-name="null" d="M820 1474Q854 1474 878 1450T902 1391Q902 1357 879 1333T820 1309T761 1333T737 1391T761 1449T820 1474ZM451 1474T485 1474T543 1450T567 1391Q567 1357 543 1333T485 1309Q450 1309 426 1333T402 1391T426 1449ZM310
0Q286 0 273 12T259 43Q259 60 272 73T309 86H614V1085H309Q286 1085 273 1097T259 1127Q259 1145 272 1158T310 1171H995Q1018 1171 1031 1158T1045 1127Q1045 1110 1032 1098T996 1085H710V86H996Q1019 86 1032 73T1045 43Q1045 25 1032 13T995 0H310Z" />
<glyph unicode="&#xd0;" glyph-name="null" d="M978 591Q978 830 865 957T534 1085H420V648H607Q646 648 646 611Q646 572 605 572H420V86H520Q763 86 870 210T978 591ZM172 572Q126 572 126 611Q126 648 168 648H314V1085H155Q132 1085 120 1097T107 1127Q107
1145 120 1158T157 1171H515Q782 1171 933 1027T1084 591Q1084 283 939 142T513 0H152Q128 0 115 12T101 43Q101 60 114 73T151 86H314V572H172Z" />
<glyph unicode="&#xd1;" glyph-name="null" d="M504 1528Q508 1528 520 1526Q556 1519 643 1474T752 1429Q761 1429 768 1433T783 1447T795 1463T807 1485T817 1505Q821 1513 834 1513Q851 1513 868 1501T882 1475Q834 1350 756 1350Q747 1350 729 1354Q688 1365
614 1403T515 1447Q512 1448 506 1448Q472 1448 443 1380Q437 1368 421 1368Q407 1368 394 1376T380 1396Q380 1441 419 1484T504 1528ZM129 1085Q106 1085 93 1097T80 1127Q80 1145 93 1158T130 1171H417Q445 1171 457 1147L943 194V1085H794Q771 1085 758 1097T745
1127Q745 1145 758 1158T796 1171H1133Q1156 1171 1169 1158T1183 1127Q1183 1110 1171 1098T1135 1085H1039V47Q1039 16 1025 0T990 -16Q954 -16 934 22L381 1084V86H519Q542 86 555 73T568 43Q568 25 555 13T518 0H160Q136 0 123 12T110 43Q110 60 123 73T159
86H285V1085H129Z" />
<glyph unicode="&#xd2;" glyph-name="null" d="M822 1385Q822 1372 812 1361T789 1350Q781 1350 777 1354Q719 1388 437 1564Q418 1577 418 1595Q418 1616 436 1634T476 1652Q493 1652 504 1642Q662 1506 812 1406Q822 1400 822 1385ZM700 1101T620 1101T471 1072T354
993T272 877T221 736T204 582Q204 484 230 394T306 230T437 113T620 69T802 113T933 230T1009 393T1036 582Q1036 661 1020 736T969 877T886 993T769 1072ZM743 -17T620 -17T397 34T236 170T141 361T108 582T141 804T235 997T397 1135T620 1187T843 1135T1004 997T1099
804T1132 582T1099 361T1005 170T843 34Z" />
<glyph unicode="&#xd3;" glyph-name="null" d="M791 1588L469 1354Q465 1350 458 1350Q449 1350 442 1356T434 1372Q434 1380 441 1387L712 1663Q726 1677 743 1677Q766 1677 785 1657T805 1616Q805 1598 791 1588ZM700 1101T620 1101T471 1072T354 993T272 877T221
736T204 582Q204 484 230 394T306 230T437 113T620 69T802 113T933 230T1009 393T1036 582Q1036 661 1020 736T969 877T886 993T769 1072ZM743 -17T620 -17T397 34T236 170T141 361T108 582T141 804T235 997T397 1135T620 1187T843 1135T1004 997T1099 804T1132
582T1099 361T1005 170T843 34Z" />
<glyph unicode="&#xd4;" glyph-name="null" d="M619 1691Q644 1691 651 1679L835 1396Q842 1389 842 1379Q842 1367 831 1359T805 1350Q788 1350 782 1359L619 1568L457 1359Q451 1350 434 1350Q420 1350 409 1358T397 1379Q397 1389 404 1396L588 1679Q596 1691
619 1691ZM700 1101T620 1101T471 1072T354 993T272 877T221 736T204 582Q204 484 230 394T306 230T437 113T620 69T802 113T933 230T1009 393T1036 582Q1036 661 1020 736T969 877T886 993T769 1072ZM743 -17T620 -17T397 34T236 170T141 361T108 582T141 804T235
997T397 1135T620 1187T843 1135T1004 997T1099 804T1132 582T1099 361T1005 170T843 34Z" />
<glyph unicode="&#xd5;" glyph-name="null" d="M493 1528Q497 1528 509 1526Q545 1519 632 1474T741 1429Q750 1429 757 1433T772 1447T784 1463T796 1485T806 1505Q810 1513 823 1513Q840 1513 857 1501T871 1475Q823 1350 745 1350Q736 1350 718 1354Q677 1365
603 1403T504 1447Q501 1448 495 1448Q461 1448 432 1380Q426 1368 410 1368Q396 1368 383 1376T369 1396Q369 1441 408 1484T493 1528ZM700 1101T620 1101T471 1072T354 993T272 877T221 736T204 582Q204 484 230 394T306 230T437 113T620 69T802 113T933 230T1009
393T1036 582Q1036 661 1020 736T969 877T886 993T769 1072ZM743 -17T620 -17T397 34T236 170T141 361T108 582T141 804T235 997T397 1135T620 1187T843 1135T1004 997T1099 804T1132 582T1099 361T1005 170T843 34Z" />
<glyph unicode="&#xd6;" glyph-name="null" d="M787 1515Q821 1515 845 1491T869 1432Q869 1398 846 1374T787 1350T728 1374T704 1432T728 1490T787 1515ZM418 1515T452 1515T510 1491T534 1432Q534 1398 510 1374T452 1350Q417 1350 393 1374T369 1432T393 1490ZM700
1101T620 1101T471 1072T354 993T272 877T221 736T204 582Q204 484 230 394T306 230T437 113T620 69T802 113T933 230T1009 393T1036 582Q1036 661 1020 736T969 877T886 993T769 1072ZM743 -17T620 -17T397 34T236 170T141 361T108 582T141 804T235 997T397 1135T620
1187T843 1135T1004 997T1099 804T1132 582T1099 361T1005 170T843 34Z" />
<glyph unicode="&#xd7;" glyph-name="null" d="M919 757Q939 757 954 742T969 707Q969 686 954 671L770 488L954 303Q969 288 969 268T954 233T919 218Q898 218 883 233L699 417L516 233Q501 218 480 218Q460 218 445 233T430 268T445 303L628 488L445 671Q430
686 430 707Q430 727 445 742T480 757Q501 757 516 742L699 558L883 742Q898 757 919 757Z" />
<glyph unicode="&#xd8;" glyph-name="null" d="M700 1101T620 1101T471 1072T354 993T272 877T221 736T204 582Q204 484 230 394Q256 303 306 230Q337 184 381 150L835 1037Q805 1058 769 1072Q700 1101 620 1101ZM295 -172Q286 -192 265 -192Q250 -192 238 -182T226
-158Q226 -152 229 -146L339 69Q278 112 236 170Q174 255 141 361T108 582T141 804T235 997T397 1135T620 1187T843 1135Q860 1126 876 1117L972 1305Q981 1321 999 1321Q1013 1321 1025 1312T1037 1289Q1037 1281 1033 1274L932 1076Q972 1041 1004 997Q1066 911
1099 804T1132 582T1099 361T1005 170T843 34T620 -17Q499 -17 399 33L295 -172ZM440 112Q521 69 620 69Q721 69 802 113T933 230T1009 393T1036 582Q1036 661 1020 736Q1002 811 968 877Q934 941 888 991L440 112Z" />
<glyph unicode="&#xd9;" glyph-name="null" d="M851 1385Q851 1372 841 1361T818 1350Q810 1350 806 1354Q748 1388 466 1564Q447 1577 447 1595Q447 1616 465 1634T505 1652Q522 1652 533 1642Q691 1506 841 1406Q851 1400 851 1385ZM654 -17Q472 -17 361 98T249
413V1085H104Q81 1085 68 1097T55 1127Q55 1145 68 1158T105 1171H506Q529 1171 542 1158T556 1127Q556 1110 543 1098T507 1085H345V413Q345 249 425 159T654 69Q792 69 876 164T960 411V1085H839Q816 1085 803 1097T789 1127Q789 1145 802 1158T840 1171H1173Q1206
1171 1224 1158T1243 1127Q1243 1110 1225 1098T1174 1085H1056V411Q1056 220 945 102T654 -17Z" />
<glyph unicode="&#xda;" glyph-name="null" d="M820 1588L498 1354Q494 1350 487 1350Q478 1350 471 1356T463 1372Q463 1380 470 1387L741 1663Q755 1677 772 1677Q795 1677 814 1657T834 1616Q834 1598 820 1588ZM654 -17Q472 -17 361 98T249 413V1085H104Q81
1085 68 1097T55 1127Q55 1145 68 1158T105 1171H506Q529 1171 542 1158T556 1127Q556 1110 543 1098T507 1085H345V413Q345 249 425 159T654 69Q792 69 876 164T960 411V1085H839Q816 1085 803 1097T789 1127Q789 1145 802 1158T840 1171H1173Q1206 1171 1224
1158T1243 1127Q1243 1110 1225 1098T1174 1085H1056V411Q1056 220 945 102T654 -17Z" />
<glyph unicode="&#xdb;" glyph-name="null" d="M649 1691Q674 1691 681 1679L865 1396Q872 1389 872 1379Q872 1367 861 1359T835 1350Q818 1350 812 1359L649 1568L487 1359Q481 1350 464 1350Q450 1350 439 1358T427 1379Q427 1389 434 1396L618 1679Q626 1691
649 1691ZM654 -17Q472 -17 361 98T249 413V1085H104Q81 1085 68 1097T55 1127Q55 1145 68 1158T105 1171H506Q529 1171 542 1158T556 1127Q556 1110 543 1098T507 1085H345V413Q345 249 425 159T654 69Q792 69 876 164T960 411V1085H839Q816 1085 803 1097T789
1127Q789 1145 802 1158T840 1171H1173Q1206 1171 1224 1158T1243 1127Q1243 1110 1225 1098T1174 1085H1056V411Q1056 220 945 102T654 -17Z" />
<glyph unicode="&#xdc;" glyph-name="null" d="M817 1474Q851 1474 875 1450T899 1391Q899 1357 876 1333T817 1309T758 1333T734 1391T758 1449T817 1474ZM448 1474T482 1474T540 1450T564 1391Q564 1357 540 1333T482 1309Q447 1309 423 1333T399 1391T423 1449ZM654
-17Q472 -17 361 98T249 413V1085H104Q81 1085 68 1097T55 1127Q55 1145 68 1158T105 1171H506Q529 1171 542 1158T556 1127Q556 1110 543 1098T507 1085H345V413Q345 249 425 159T654 69Q792 69 876 164T960 411V1085H839Q816 1085 803 1097T789 1127Q789 1145
802 1158T840 1171H1173Q1206 1171 1224 1158T1243 1127Q1243 1110 1225 1098T1174 1085H1056V411Q1056 220 945 102T654 -17Z" />
<glyph unicode="&#xdd;" glyph-name="null" d="M791 1588L469 1354Q465 1350 458 1350Q449 1350 442 1356T434 1372Q434 1380 441 1387L712 1663Q726 1677 743 1677Q766 1677 785 1657T805 1616Q805 1598 791 1588ZM1065 1171Q1089 1171 1102 1160T1116 1132Q1116
1117 1103 1106T1067 1095H1012L689 548V86H921Q944 86 956 74T969 44Q969 26 956 13T919 0H334Q310 0 296 13T282 44Q282 61 295 73T332 86H593V553L258 1095H174Q151 1095 138 1106T124 1133T138 1159T175 1171H505Q529 1171 542 1160T556 1133T543 1107T506
1095H370L646 633L914 1095H803Q780 1095 767 1106T753 1133T766 1159T804 1171H1065Z" />
<glyph unicode="&#xde;" glyph-name="null" d="M1067 619Q1067 557 1046 509T994 429T907 376T806 343T683 326T559 319T429 318V82H656Q695 82 695 41T655 0H109Q68 0 68 41T108 82H333V1085H121Q82 1085 82 1127Q82 1171 123 1171H600Q631 1171 631 1130Q631
1085 592 1085H429V928Q518 928 565 927T691 921T813 904T913 870T997 815T1046 733T1067 619ZM971 626Q971 716 924 763T762 831T429 851V392Q740 392 855 438T971 626Z" />
<glyph unicode="&#xdf;" glyph-name="null" d="M928 894Q928 801 866 734T725 643Q790 630 843 608T946 549T1024 453T1052 318Q1052 50 724 0Q719 -1 710 -1Q688 -1 676 11T663 44Q663 58 671 65T688 75T724 82Q772 89 809 103T881 144T935 214T954 320Q954 393
922 447T835 531T715 576T579 591Q556 591 544 604T532 636T544 665T579 677Q621 677 664 690T747 729T810 799T835 898Q835 995 776 1050T619 1106Q370 1106 370 706V82H526Q553 82 564 73T575 38Q575 0 524 0H145Q94 0 94 38Q94 63 105 72T143 82H274V700Q274
812 293 898T343 1038T418 1126T510 1174T614 1188Q746 1188 837 1109T928 894Z" />
<glyph unicode="&#xe0;" glyph-name="null" d="M900 1011Q900 998 890 987T867 976Q859 976 855 980Q797 1014 515 1190Q496 1203 496 1221Q496 1242 514 1260T554 1278Q571 1278 582 1268Q740 1132 890 1032Q900 1026 900 1011ZM611 731Q490 731 390 686Q386
609 372 570T324 531Q295 531 280 551T264 603Q264 695 361 754T612 813Q699 813 758 789T850 714T896 600T910 444V132Q910 97 924 85T962 72Q988 72 1017 87T1063 121Q1074 133 1087 133Q1102 133 1113 120T1124 91Q1124 76 1114 66Q1044 -7 954 -7Q903 -7 868
17T821 113Q772 58 684 21T491 -16Q379 -16 316 45T253 210Q253 246 262 276T286 330T326 371T375 402T437 425T505 441T581 452T659 459T741 465Q790 468 814 470V490Q814 607 769 669T611 731ZM814 401Q581 378 516 364Q389 336 361 268Q350 243 350 210Q350
134 391 100T502 65Q591 65 675 98T814 189V401Z" />
<glyph unicode="&#xe1;" glyph-name="null" d="M870 1470L548 1236Q544 1232 537 1232Q528 1232 521 1238T513 1254Q513 1262 520 1269L791 1545Q805 1559 822 1559Q845 1559 864 1539T884 1498Q884 1480 870 1470ZM611 731Q490 731 390 686Q386 609 372 570T324
531Q295 531 280 551T264 603Q264 695 361 754T612 813Q699 813 758 789T850 714T896 600T910 444V132Q910 97 924 85T962 72Q988 72 1017 87T1063 121Q1074 133 1087 133Q1102 133 1113 120T1124 91Q1124 76 1114 66Q1044 -7 954 -7Q903 -7 868 17T821 113Q772
58 684 21T491 -16Q379 -16 316 45T253 210Q253 246 262 276T286 330T326 371T375 402T437 425T505 441T581 452T659 459T741 465Q790 468 814 470V490Q814 607 769 669T611 731ZM814 401Q581 378 516 364Q389 336 361 268Q350 243 350 210Q350 134 391 100T502
65Q591 65 675 98T814 189V401Z" />
<glyph unicode="&#xe2;" glyph-name="null" d="M954 1573Q979 1573 986 1561L1170 1278Q1177 1271 1177 1261Q1177 1249 1166 1241T1140 1232Q1123 1232 1117 1241L954 1450L792 1241Q786 1232 769 1232Q755 1232 744 1240T732 1261Q732 1271 739 1278L923 1561Q931
1573 954 1573ZM611 731Q490 731 390 686Q386 609 372 570T324 531Q295 531 280 551T264 603Q264 695 361 754T612 813Q699 813 758 789T850 714T896 600T910 444V132Q910 97 924 85T962 72Q988 72 1017 87T1063 121Q1074 133 1087 133Q1102 133 1113 120T1124
91Q1124 76 1114 66Q1044 -7 954 -7Q903 -7 868 17T821 113Q772 58 684 21T491 -16Q379 -16 316 45T253 210Q253 246 262 276T286 330T326 371T375 402T437 425T505 441T581 452T659 459T741 465Q790 468 814 470V490Q814 607 769 669T611 731ZM814 401Q581 378
516 364Q389 336 361 268Q350 243 350 210Q350 134 391 100T502 65Q591 65 675 98T814 189V401Z" />
<glyph unicode="&#xe3;" glyph-name="null" d="M571 1410Q575 1410 587 1408Q623 1401 710 1356T819 1311Q828 1311 835 1315T850 1329T862 1345T874 1367T884 1387Q888 1395 901 1395Q918 1395 935 1383T949 1357Q901 1232 823 1232Q814 1232 796 1236Q755 1247
681 1285T582 1329Q579 1330 573 1330Q539 1330 510 1262Q504 1250 488 1250Q474 1250 461 1258T447 1278Q447 1323 486 1366T571 1410ZM611 731Q490 731 390 686Q386 609 372 570T324 531Q295 531 280 551T264 603Q264 695 361 754T612 813Q699 813 758 789T850
714T896 600T910 444V132Q910 97 924 85T962 72Q988 72 1017 87T1063 121Q1074 133 1087 133Q1102 133 1113 120T1124 91Q1124 76 1114 66Q1044 -7 954 -7Q903 -7 868 17T821 113Q772 58 684 21T491 -16Q379 -16 316 45T253 210Q253 246 262 276T286 330T326 371T375
402T437 425T505 441T581 452T659 459T741 465Q790 468 814 470V490Q814 607 769 669T611 731ZM814 401Q581 378 516 364Q389 336 361 268Q350 243 350 210Q350 134 391 100T502 65Q591 65 675 98T814 189V401Z" />
<glyph unicode="&#xe4;" glyph-name="null" d="M1113 1356Q1147 1356 1171 1332T1195 1273Q1195 1239 1172 1215T1113 1191T1054 1215T1030 1273T1054 1331T1113 1356ZM744 1356T778 1356T836 1332T860 1273Q860 1239 836 1215T778 1191Q743 1191 719 1215T695
1273T719 1331ZM611 731Q490 731 390 686Q386 609 372 570T324 531Q295 531 280 551T264 603Q264 695 361 754T612 813Q699 813 758 789T850 714T896 600T910 444V132Q910 97 924 85T962 72Q988 72 1017 87T1063 121Q1074 133 1087 133Q1102 133 1113 120T1124
91Q1124 76 1114 66Q1044 -7 954 -7Q903 -7 868 17T821 113Q772 58 684 21T491 -16Q379 -16 316 45T253 210Q253 246 262 276T286 330T326 371T375 402T437 425T505 441T581 452T659 459T741 465Q790 468 814 470V490Q814 607 769 669T611 731ZM814 401Q581 378
516 364Q389 336 361 268Q350 243 350 210Q350 134 391 100T502 65Q591 65 675 98T814 189V401Z" />
<glyph unicode="&#xe5;" glyph-name="null" d="M957 1572Q1037 1572 1081 1522T1126 1403T1080 1283T954 1232T829 1282T783 1400Q783 1469 829 1520T957 1572ZM913 1297T959 1297T1029 1326T1053 1401T1028 1476T956 1506Q909 1506 884 1476T859 1401Q859 1358
886 1328ZM611 731Q490 731 390 686Q386 609 372 570T324 531Q295 531 280 551T264 603Q264 695 361 754T612 813Q699 813 758 789T850 714T896 600T910 444V132Q910 97 924 85T962 72Q988 72 1017 87T1063 121Q1074 133 1087 133Q1102 133 1113 120T1124 91Q1124
76 1114 66Q1044 -7 954 -7Q903 -7 868 17T821 113Q772 58 684 21T491 -16Q379 -16 316 45T253 210Q253 246 262 276T286 330T326 371T375 402T437 425T505 441T581 452T659 459T741 465Q790 468 814 470V490Q814 607 769 669T611 731ZM814 401Q581 378 516 364Q389
336 361 268Q350 243 350 210Q350 134 391 100T502 65Q591 65 675 98T814 189V401Z" />
<glyph unicode="&#xe6;" glyph-name="null" d="M628 129Q589 60 510 22T335 -17Q249 -17 184 44T119 203Q119 259 132 300T179 368T244 411T339 437T445 451T572 459V496Q572 611 538 671T405 731Q316 731 247 701Q243 620 230 576T185 531Q158 531 144 551T129
603Q129 699 198 756T406 813Q492 813 551 767T624 642Q658 722 722 767T869 813Q975 813 1043 729T1112 488Q1112 451 1093 430T1040 408L655 394Q666 61 884 61Q936 61 964 76T1048 146Q1068 163 1086 163Q1122 163 1122 127Q1122 104 1106 85Q1017 -17 876 -17Q793
-17 729 23T628 129ZM658 461L1033 474Q1017 731 870 731Q818 731 779 712T719 667T684 601T666 531T658 461ZM352 60Q430 60 500 94T603 193Q574 282 573 391Q496 387 448 383T355 369T285 348T242 316T217 269T210 203Q210 139 250 100T352 60Z" />
<glyph unicode="&#xe7;" glyph-name="null" d="M600 -4L559 -325Q554 -367 537 -386T497 -405Q474 -405 461 -391T448 -351Q448 -334 456 -310L563 -4H600ZM635 813Q793 813 886 753T979 564Q979 528 964 506T919 484T879 519T858 645Q855 672 853 686Q762 731
650 731Q475 731 377 645T279 407Q279 238 372 152T624 65Q716 65 778 90T902 172Q919 188 943 188Q978 188 978 147Q978 124 960 105Q908 48 813 16T632 -17Q429 -17 306 96T183 407Q183 593 312 703T635 813Z" />
<glyph unicode="&#xe8;" glyph-name="null" d="M824 970Q824 957 814 946T791 935Q783 935 779 939Q721 973 439 1149Q420 1162 420 1180Q420 1201 438 1219T478 1237Q495 1237 506 1227Q664 1091 814 991Q824 985 824 970ZM654 813Q814 813 914 726T1014 479Q1014
441 993 417T937 392L308 387Q313 229 408 147T657 65Q819 65 934 174Q955 191 975 191Q993 191 1004 178T1015 147Q1015 124 997 105Q945 49 848 16T665 -17Q462 -17 337 96T212 407Q212 501 247 578T342 706T483 785T654 813ZM311 461L929 465Q927 501 922 531T899
600T853 666T775 712T656 731Q510 731 420 660T311 461Z" />
<glyph unicode="&#xe9;" glyph-name="null" d="M1049 1429L727 1195Q723 1191 716 1191Q707 1191 700 1197T692 1213Q692 1221 699 1228L970 1504Q984 1518 1001 1518Q1024 1518 1043 1498T1063 1457Q1063 1439 1049 1429ZM654 813Q814 813 914 726T1014 479Q1014
441 993 417T937 392L308 387Q313 229 408 147T657 65Q819 65 934 174Q955 191 975 191Q993 191 1004 178T1015 147Q1015 124 997 105Q945 49 848 16T665 -17Q462 -17 337 96T212 407Q212 501 247 578T342 706T483 785T654 813ZM311 461L929 465Q927 501 922 531T899
600T853 666T775 712T656 731Q510 731 420 660T311 461Z" />
<glyph unicode="&#xea;" glyph-name="null" d="M877 1532Q902 1532 909 1520L1093 1237Q1100 1230 1100 1220Q1100 1208 1089 1200T1063 1191Q1046 1191 1040 1200L877 1409L715 1200Q709 1191 692 1191Q678 1191 667 1199T655 1220Q655 1230 662 1237L846 1520Q854
1532 877 1532ZM654 813Q814 813 914 726T1014 479Q1014 441 993 417T937 392L308 387Q313 229 408 147T657 65Q819 65 934 174Q955 191 975 191Q993 191 1004 178T1015 147Q1015 124 997 105Q945 49 848 16T665 -17Q462 -17 337 96T212 407Q212 501 247 578T342
706T483 785T654 813ZM311 461L929 465Q927 501 922 531T899 600T853 666T775 712T656 731Q510 731 420 660T311 461Z" />
<glyph unicode="&#xeb;" glyph-name="null" d="M1037 1356Q1071 1356 1095 1332T1119 1273Q1119 1239 1096 1215T1037 1191T978 1215T954 1273T978 1331T1037 1356ZM668 1356T702 1356T760 1332T784 1273Q784 1239 760 1215T702 1191Q667 1191 643 1215T619 1273T643
1331ZM654 813Q814 813 914 726T1014 479Q1014 441 993 417T937 392L308 387Q313 229 408 147T657 65Q819 65 934 174Q955 191 975 191Q993 191 1004 178T1015 147Q1015 124 997 105Q945 49 848 16T665 -17Q462 -17 337 96T212 407Q212 501 247 578T342 706T483
785T654 813ZM311 461L929 465Q927 501 922 531T899 600T853 666T775 712T656 731Q510 731 420 660T311 461Z" />
<glyph unicode="&#xec;" glyph-name="null" d="M896 970Q896 957 886 946T863 935Q855 935 851 939Q793 973 511 1149Q492 1162 492 1180Q492 1201 510 1219T550 1237Q567 1237 578 1227Q736 1091 886 991Q896 985 896 970ZM299 0Q277 0 265 13T253 43Q253 59
264 70T295 82H667V719L334 674Q332 674 330 674T327 673Q308 673 297 685T286 715Q286 751 318 755L716 810Q719 811 727 811Q743 811 753 803T763 779V82H1096Q1115 82 1125 70T1136 41Q1136 24 1125 12T1095 0H299Z" />
<glyph unicode="&#xed;" glyph-name="null" d="M866 1429L544 1195Q540 1191 533 1191Q524 1191 517 1197T509 1213Q509 1221 516 1228L787 1504Q801 1518 818 1518Q841 1518 860 1498T880 1457Q880 1439 866 1429ZM299 0Q277 0 265 13T253 43Q253 59 264 70T295
82H667V719L334 674Q332 674 330 674T327 673Q308 673 297 685T286 715Q286 751 318 755L716 810Q719 811 727 811Q743 811 753 803T763 779V82H1096Q1115 82 1125 70T1136 41Q1136 24 1125 12T1095 0H299Z" />
<glyph unicode="&#xee;" glyph-name="null" d="M950 1532Q975 1532 982 1520L1166 1237Q1173 1230 1173 1220Q1173 1208 1162 1200T1136 1191Q1119 1191 1113 1200L950 1409L788 1200Q782 1191 765 1191Q751 1191 740 1199T728 1220Q728 1230 735 1237L919 1520Q927
1532 950 1532ZM299 0Q277 0 265 13T253 43Q253 59 264 70T295 82H667V719L334 674Q332 674 330 674T327 673Q308 673 297 685T286 715Q286 751 318 755L716 810Q719 811 727 811Q743 811 753 803T763 779V82H1096Q1115 82 1125 70T1136 41Q1136 24 1125 12T1095
0H299Z" />
<glyph unicode="&#xef;" glyph-name="null" d="M1119 1356Q1153 1356 1177 1332T1201 1273Q1201 1239 1178 1215T1119 1191T1060 1215T1036 1273T1060 1331T1119 1356ZM750 1356T784 1356T842 1332T866 1273Q866 1239 842 1215T784 1191Q749 1191 725 1215T701
1273T725 1331ZM299 0Q277 0 265 13T253 43Q253 59 264 70T295 82H667V719L334 674Q332 674 330 674T327 673Q308 673 297 685T286 715Q286 751 318 755L716 810Q719 811 727 811Q743 811 753 803T763 779V82H1096Q1115 82 1125 70T1136 41Q1136 24 1125 12T1095
0H299Z" />
<glyph unicode="&#xf0;" glyph-name="null" d="M703 1116Q872 959 941 796T1010 453Q1010 232 908 108T602 -17Q425 -17 319 95T212 394Q212 583 318 698T607 813Q815 813 919 615Q857 855 629 1065L492 971Q482 964 471 964Q455 964 443 977T430 1008Q430 1026
446 1038L565 1121Q537 1144 508 1165T459 1200T434 1218Q428 1222 428 1231Q428 1248 443 1268T474 1288Q478 1288 483 1285Q563 1234 638 1172L777 1269Q786 1275 795 1275Q812 1275 825 1260T839 1226Q839 1209 825 1199L703 1116ZM602 65Q750 65 832 152T914
391Q914 553 826 642T608 731Q463 731 386 643T308 391Q308 238 390 152T602 65Z" />
<glyph unicode="&#xf1;" glyph-name="null" d="M764 1369Q768 1369 780 1367Q816 1360 903 1315T1012 1270Q1021 1270 1028 1274T1043 1288T1055 1304T1067 1326T1077 1346Q1081 1354 1094 1354Q1111 1354 1128 1342T1142 1316Q1094 1191 1016 1191Q1007 1191
989 1195Q948 1206 874 1244T775 1288Q772 1289 766 1289Q732 1289 703 1221Q697 1209 681 1209Q667 1209 654 1217T640 1237Q640 1282 679 1325T764 1369ZM714 731Q578 731 486 658T394 503V82H499Q522 82 534 70T547 42Q547 25 534 13T497 0H194Q172 0 160 13T148
43Q148 59 159 70T190 82H298V709L190 687Q179 684 170 684Q153 684 142 695T131 722Q131 755 164 763L328 796Q342 798 346 798Q383 798 385 759L390 639Q428 714 517 763T709 813Q850 813 920 740T990 533V82H1099Q1118 82 1128 70T1139 42Q1139 25 1128 13T1097
0H752Q730 0 718 13T706 43Q706 59 717 70T748 82H894V540Q894 631 849 681T714 731Z" />
<glyph unicode="&#xf2;" glyph-name="null" d="M822 970Q822 957 812 946T789 935Q781 935 777 939Q719 973 437 1149Q418 1162 418 1180Q418 1201 436 1219T476 1237Q493 1237 504 1227Q662 1091 812 991Q822 985 822 970ZM472 65T620 65T852 157T936 398T852
639T620 731T388 639T304 398T388 157ZM429 813T620 813T927 701T1044 398Q1044 209 928 96T620 -17T313 96T196 398Q196 589 312 701Z" />
<glyph unicode="&#xf3;" glyph-name="null" d="M1047 1429L725 1195Q721 1191 714 1191Q705 1191 698 1197T690 1213Q690 1221 697 1228L968 1504Q982 1518 999 1518Q1022 1518 1041 1498T1061 1457Q1061 1439 1047 1429ZM472 65T620 65T852 157T936 398T852 639T620
731T388 639T304 398T388 157ZM429 813T620 813T927 701T1044 398Q1044 209 928 96T620 -17T313 96T196 398Q196 589 312 701Z" />
<glyph unicode="&#xf4;" glyph-name="null" d="M875 1532Q900 1532 907 1520L1091 1237Q1098 1230 1098 1220Q1098 1208 1087 1200T1061 1191Q1044 1191 1038 1200L875 1409L713 1200Q707 1191 690 1191Q676 1191 665 1199T653 1220Q653 1230 660 1237L844 1520Q852
1532 875 1532ZM472 65T620 65T852 157T936 398T852 639T620 731T388 639T304 398T388 157ZM429 813T620 813T927 701T1044 398Q1044 209 928 96T620 -17T313 96T196 398Q196 589 312 701Z" />
<glyph unicode="&#xf5;" glyph-name="null" d="M749 1369Q753 1369 765 1367Q801 1360 888 1315T997 1270Q1006 1270 1013 1274T1028 1288T1040 1304T1052 1326T1062 1346Q1066 1354 1079 1354Q1096 1354 1113 1342T1127 1316Q1079 1191 1001 1191Q992 1191 974
1195Q933 1206 859 1244T760 1288Q757 1289 751 1289Q717 1289 688 1221Q682 1209 666 1209Q652 1209 639 1217T625 1237Q625 1282 664 1325T749 1369ZM472 65T620 65T852 157T936 398T852 639T620 731T388 639T304 398T388 157ZM429 813T620 813T927 701T1044
398Q1044 209 928 96T620 -17T313 96T196 398Q196 589 312 701Z" />
<glyph unicode="&#xf6;" glyph-name="null" d="M1044 1356Q1078 1356 1102 1332T1126 1273Q1126 1239 1103 1215T1044 1191T985 1215T961 1273T985 1331T1044 1356ZM675 1356T709 1356T767 1332T791 1273Q791 1239 767 1215T709 1191Q674 1191 650 1215T626 1273T650
1331ZM472 65T620 65T852 157T936 398T852 639T620 731T388 639T304 398T388 157ZM429 813T620 813T927 701T1044 398Q1044 209 928 96T620 -17T313 96T196 398Q196 589 312 701Z" />
<glyph unicode="&#xf7;" glyph-name="null" d="M347 596H894Q915 596 927 583T939 549T927 516T894 502H347Q325 502 313 516T301 551Q301 570 312 583T347 596ZM534 789T534 823T558 881T618 905Q652 905 676 882T700 823T676 765T618 741Q583 741 559 765ZM534
277Q534 311 558 335T618 359Q652 359 676 336T700 277T676 218T618 193T559 217T534 277Z" />
<glyph unicode="&#xf8;" glyph-name="null" d="M620 65Q768 65 852 157T936 398T852 639Q826 667 795 686L506 81Q558 65 620 65ZM410 -121Q400 -142 380 -142Q365 -142 356 -133T347 -108Q347 -101 350 -95L409 28Q356 54 312 96Q196 209 196 398Q196 589 312
701T620 813Q704 813 774 791L834 917Q841 934 861 934Q894 934 894 900Q894 894 891 888L833 767Q886 741 928 701Q1044 589 1044 398Q1044 209 928 96T620 -17Q538 -17 470 4L410 -121ZM737 714Q685 731 620 731Q472 731 388 639T304 398T388 157Q414 128 447
108L737 714Z" />
<glyph unicode="&#xf9;" glyph-name="null" d="M834 1011Q834 998 824 987T801 976Q793 976 789 980Q731 1014 449 1190Q430 1203 430 1221Q430 1242 448 1260T488 1278Q505 1278 516 1268Q674 1132 824 1032Q834 1026 834 1011ZM562 65Q652 65 742 113T866 231V706L769
686Q760 683 751 683Q730 683 717 696T704 726Q704 758 742 765L916 800Q924 802 928 802Q943 802 952 792T962 768V85L1110 96H1116Q1136 96 1146 86T1156 61T1146 34T1118 17L932 -3H925Q881 -3 878 47L873 134Q829 69 742 26T561 -17Q425 -17 348 59T270 262V706L172
686Q166 684 155 684Q135 684 122 697T109 727Q109 758 145 765L320 800Q328 802 332 802Q347 802 356 792T366 768V259Q366 172 415 119T562 65Z" />
<glyph unicode="&#xfa;" glyph-name="null" d="M1060 1470L738 1236Q734 1232 727 1232Q718 1232 711 1238T703 1254Q703 1262 710 1269L981 1545Q995 1559 1012 1559Q1035 1559 1054 1539T1074 1498Q1074 1480 1060 1470ZM562 65Q652 65 742 113T866 231V706L769
686Q760 683 751 683Q730 683 717 696T704 726Q704 758 742 765L916 800Q924 802 928 802Q943 802 952 792T962 768V85L1110 96H1116Q1136 96 1146 86T1156 61T1146 34T1118 17L932 -3H925Q881 -3 878 47L873 134Q829 69 742 26T561 -17Q425 -17 348 59T270 262V706L172
686Q166 684 155 684Q135 684 122 697T109 727Q109 758 145 765L320 800Q328 802 332 802Q347 802 356 792T366 768V259Q366 172 415 119T562 65Z" />
<glyph unicode="&#xfb;" glyph-name="null" d="M888 1573Q913 1573 920 1561L1104 1278Q1111 1271 1111 1261Q1111 1249 1100 1241T1074 1232Q1057 1232 1051 1241L888 1450L726 1241Q720 1232 703 1232Q689 1232 678 1240T666 1261Q666 1271 673 1278L857 1561Q865
1573 888 1573ZM562 65Q652 65 742 113T866 231V706L769 686Q760 683 751 683Q730 683 717 696T704 726Q704 758 742 765L916 800Q924 802 928 802Q943 802 952 792T962 768V85L1110 96H1116Q1136 96 1146 86T1156 61T1146 34T1118 17L932 -3H925Q881 -3 878 47L873
134Q829 69 742 26T561 -17Q425 -17 348 59T270 262V706L172 686Q166 684 155 684Q135 684 122 697T109 727Q109 758 145 765L320 800Q328 802 332 802Q347 802 356 792T366 768V259Q366 172 415 119T562 65Z" />
<glyph unicode="&#xfc;" glyph-name="null" d="M1057 1356Q1091 1356 1115 1332T1139 1273Q1139 1239 1116 1215T1057 1191T998 1215T974 1273T998 1331T1057 1356ZM688 1356T722 1356T780 1332T804 1273Q804 1239 780 1215T722 1191Q687 1191 663 1215T639 1273T663
1331ZM562 65Q652 65 742 113T866 231V706L769 686Q760 683 751 683Q730 683 717 696T704 726Q704 758 742 765L916 800Q924 802 928 802Q943 802 952 792T962 768V85L1110 96H1116Q1136 96 1146 86T1156 61T1146 34T1118 17L932 -3H925Q881 -3 878 47L873 134Q829
69 742 26T561 -17Q425 -17 348 59T270 262V706L172 686Q166 684 155 684Q135 684 122 697T109 727Q109 758 145 765L320 800Q328 802 332 802Q347 802 356 792T366 768V259Q366 172 415 119T562 65Z" />
<glyph unicode="&#xfd;" glyph-name="null" d="M1049 1470L727 1236Q723 1232 716 1232Q707 1232 700 1238T692 1254Q692 1262 699 1269L970 1545Q984 1559 1001 1559Q1024 1559 1043 1539T1063 1498Q1063 1480 1049 1470ZM488 774Q529 774 529 732Q529 692 490
692H388L643 95L871 692H782Q743 692 743 732Q743 774 783 774H1048Q1094 774 1094 733T1052 692H973L670 -83Q619 -214 549 -287T371 -361Q303 -361 303 -309Q303 -261 371 -261Q426 -261 476 -224T543 -141L597 -2Q533 131 421 385T284 692H191Q150 692 150 732Q150
774 196 774H488Z" />
<glyph unicode="&#xfe;" glyph-name="null" d="M975 398Q975 540 902 635T695 731Q510 731 409 586V194Q512 65 687 65Q824 65 899 161T975 398ZM409 1150V690Q530 813 697 813Q870 813 970 698T1071 398Q1071 216 968 100T693 -17Q602 -17 536 10T409 89V-288H625Q645
-288 656 -299T667 -327Q667 -344 655 -357T621 -370H225Q205 -370 194 -358T183 -328Q183 -312 193 -300T223 -288H313V1082L144 1058Q142 1058 140 1058T136 1057Q117 1057 107 1069T96 1099Q96 1135 128 1139L362 1181Q363 1181 366 1181T373 1182Q389 1182
399 1174T409 1150Z" />
<glyph unicode="&#xff;" glyph-name="null" d="M1046 1356Q1080 1356 1104 1332T1128 1273Q1128 1239 1105 1215T1046 1191T987 1215T963 1273T987 1331T1046 1356ZM677 1356T711 1356T769 1332T793 1273Q793 1239 769 1215T711 1191Q676 1191 652 1215T628 1273T652
1331ZM488 774Q529 774 529 732Q529 692 490 692H388L643 95L871 692H782Q743 692 743 732Q743 774 783 774H1048Q1094 774 1094 733T1052 692H973L670 -83Q619 -214 549 -287T371 -361Q303 -361 303 -309Q303 -261 371 -261Q426 -261 476 -224T543 -141L597 -2Q533
131 421 385T284 692H191Q150 692 150 732Q150 774 196 774H488Z" />
<glyph unicode="&#x2013;" glyph-name="null" d="M958 503Q979 503 991 491T1003 460Q1003 443 991 430T958 417H283Q262 417 250 430T238 460Q238 478 250 490T283 503H958Z" />
<glyph unicode="&#x2014;" glyph-name="null" d="M1042 533Q1063 533 1075 521T1087 490Q1087 473 1075 460T1042 447H199Q178 447 166 460T154 490Q154 508 166 520T199 533H1042Z" />
<glyph unicode="&#x2018;" glyph-name="null" d="M633 774Q585 774 553 806T521 895Q521 977 580 1064T706 1185Q709 1187 716 1187Q727 1187 735 1179T744 1160Q744 1148 732 1139Q695 1112 659 1059T623 962Q670 962 700 939T731 869Q731 824 702 799T633 774Z" />
<glyph unicode="&#x2019;" glyph-name="null" d="M649 1187Q697 1187 729 1155T761 1066Q761 984 702 897T576 776Q573 774 566 774Q555 774 547 782T538 801Q538 813 550 822Q587 849 623 902T659 999Q612 999 582 1022T551 1092Q551 1137 580 1162T649 1187Z" />
<glyph unicode="&#x201a;" glyph-name="null" d="M616 180Q664 180 696 148T728 59Q728 -22 670 -97T543 -208Q540 -210 533 -210Q522 -210 514 -202T505 -183Q505 -171 517 -162Q626 -83 626 -8Q579 -8 549 15T518 85Q518 130 547 155T616 180Z" />
<glyph unicode="&#x201c;" glyph-name="null" d="M449 774Q401 774 369 806T337 895Q337 977 396 1064T522 1185Q525 1187 532 1187Q543 1187 551 1179T560 1160Q560 1148 548 1139Q511 1112 475 1059T439 962Q486 962 516 939T547 869Q547 824 518 799T449 774ZM745
774Q697 774 665 806T633 895Q633 977 692 1064T818 1185Q821 1187 828 1187Q839 1187 847 1179T856 1160Q856 1148 844 1139Q807 1112 771 1059T735 962Q782 962 812 939T843 869Q843 824 814 799T745 774Z" />
<glyph unicode="&#x201d;" glyph-name="null" d="M761 1187Q809 1187 841 1155T873 1066Q873 984 814 897T688 776Q685 774 678 774Q667 774 659 782T650 801Q650 813 662 822Q699 849 735 902T771 999Q724 999 694 1022T663 1092Q663 1137 692 1162T761 1187ZM465
1187Q513 1187 545 1155T577 1066Q577 984 518 897T392 776Q389 774 382 774Q371 774 363 782T354 801Q354 813 366 822Q403 849 439 902T475 999Q428 999 398 1022T367 1092Q367 1137 396 1162T465 1187Z" />
<glyph unicode="&#x201e;" glyph-name="null" d="M752 -214Q751 -234 728 -234Q704 -234 703 -214L671 182Q669 208 686 222T728 237Q751 237 768 224T786 187V181L752 -214ZM535 -214Q534 -234 510 -234Q487 -234 486 -214L454 182Q452 208 469 222T511 237Q534
237 551 224T569 187V181L535 -214Z" />
<glyph unicode="&#x2022;" glyph-name="null" d="M624 197Q513 197 447 262T380 439T446 615T624 681Q731 681 796 614T861 439T796 264T624 197Z" />
<glyph unicode="&#x2039;" glyph-name="null" d="M854 216L250 475Q207 493 207 530T250 585L844 841Q853 845 864 845Q882 845 894 833T907 805Q907 779 874 765L326 531L883 297Q925 278 925 248Q925 232 913 221T882 210Q869 210 854 216Z" />
<glyph unicode="&#x203a;" glyph-name="null" d="M345 834L949 575Q992 557 992 520T949 465L355 209Q346 205 335 205Q317 205 305 217T292 245Q292 271 325 285L873 519L316 753Q274 772 274 802Q274 818 286 829T317 840Q330 840 345 834Z" />
</font>
</defs>
</svg>
